<svg id="Raggruppa_2286" data-name="Raggruppa 2286" xmlns="http://www.w3.org/2000/svg" xmlns:xlink="http://www.w3.org/1999/xlink" width="205.112" height="415.633" viewBox="0 0 205.112 415.633">
  <defs>
    <clipPath id="clip-path">
      <path id="Tracciato_11055" data-name="Tracciato 11055" d="M3528.967,574.777c-.119-1.684-4.573-7.105-8.588-7.043s-4.385,3.212-4.448,4.386.741,9.415,10.5,11.936C3527.36,581.881,3529.246,578.792,3528.967,574.777Z" transform="translate(-3515.928 -567.734)" fill="none"/>
    </clipPath>
  </defs>
  <g id="Raggruppa_672" data-name="Raggruppa 672" transform="translate(1.385 199.552)">
    <path id="Tracciato_11010" data-name="Tracciato 11010" d="M3527.2,679.794c7.2-5.9-25.421,22.1-26.739,29.354s-8.339,50.793-7.536,63.919c0,0-4.159,39.538,1.277,61.777s17.076,58.911,17.076,58.911l53.013-14.354Z" transform="translate(-3490.777 -678.311)" fill="#2b3742"/>
    <path id="Tracciato_11011" data-name="Tracciato 11011" d="M3511.331,894.454a.643.643,0,0,1-.61-.445c-.114-.367-11.708-36.947-17.087-58.953-5.4-22.093-1.333-61.6-1.292-62-.833-13.445,6.474-58.088,7.543-63.967.908-4.991,15.107-18.587,25.707-28.379.368-.339.719-.664,1.028-.95a.648.648,0,0,1,.227-.4c1.239-1.015,1.5-1.226,1.923-.736.329.378.405.468-.8,1.617l37,199.1a.638.638,0,0,1-.46.732L3511.5,894.432A.666.666,0,0,1,3511.331,894.454Zm15.536-213.18c-.128.12-.264.244-.408.378-6.03,5.57-24.381,22.522-25.316,27.671-1.065,5.859-8.351,50.337-7.53,63.766-.042.5-4.086,39.788,1.261,61.663,5,20.44,15.371,53.5,16.879,58.287L3563.609,879Z" transform="translate(-3490.835 -678.372)" fill="#1e252c"/>
  </g>
  <g id="Raggruppa_673" data-name="Raggruppa 673" transform="translate(4.166 167.643)">
    <path id="Tracciato_11012" data-name="Tracciato 11012" d="M3615.187,649.976c4.614,2.471,51.071,34.925,63.59,54.611,0,0-13.838-4.036-31.794,8.155s41.613,113.03,36.753,121.6-58.21,23.457-64.264,21.068c4.942,13.178-97.041,38.492-97.041,38.492s-27.832-78.029-28.491-115.92C3505.8,753.267,3615.187,649.976,3615.187,649.976Z" transform="translate(-3493.301 -649.338)" fill="#2b3742"/>
    <path id="Tracciato_11013" data-name="Tracciato 11013" d="M3522.488,894.6a.635.635,0,0,1-.6-.424c-.281-.782-27.876-78.563-28.528-116.122a.649.649,0,0,1,.062-.288c11.778-24.536,116.914-123.969,121.384-128.19a.638.638,0,0,1,.741-.1c4.162,2.229,51.006,34.673,63.825,54.829a.64.64,0,0,1-.027.726.65.65,0,0,1-.69.231c-.134-.042-13.79-3.788-31.257,8.071-10.712,7.271,8.475,50,22.485,81.194,10.516,23.415,16.372,36.825,14.465,40.189-3.272,5.767-25.361,12.89-32.053,14.937-12.694,3.881-27.07,7.21-31.955,6.641a4.141,4.141,0,0,1-.528,2.087c-7.228,13.737-93.5,35.288-97.171,36.2A.667.667,0,0,1,3522.488,894.6ZM3494.64,778.178c.688,35.751,25.79,108,28.258,115.019,7.607-1.919,89.114-22.733,95.786-35.414a2.487,2.487,0,0,0,.25-2.094.638.638,0,0,1,.831-.818c6.166,2.434,59.091-13.064,63.476-20.789,1.68-2.962-6.188-20.484-14.52-39.034-14.988-33.37-33.638-74.9-22.04-82.775,14.72-9.991,26.6-9.266,30.759-8.575-13.233-19.141-56.238-49.358-62.1-52.872C3608.571,657.235,3506.306,754.308,3494.64,778.178Z" transform="translate(-3493.361 -649.397)" fill="#1e252c"/>
  </g>
  <g id="Raggruppa_674" data-name="Raggruppa 674" transform="translate(4.166 167.643)">
    <path id="Tracciato_11014" data-name="Tracciato 11014" d="M3615.187,649.976c4.614,2.471,51.071,34.925,63.59,54.611,0,0-13.838-4.036-31.794,8.155s-37.231,22.734-42.091,31.3,9.637,98.185,14.58,111.364S3522.43,893.9,3522.43,893.9s-27.832-78.029-28.491-115.92C3505.8,753.267,3615.187,649.976,3615.187,649.976Z" transform="translate(-3493.301 -649.338)" fill="#2b3742"/>
    <path id="Tracciato_11015" data-name="Tracciato 11015" d="M3522.488,894.6a.635.635,0,0,1-.6-.424c-.281-.782-27.876-78.563-28.528-116.122a.649.649,0,0,1,.062-.288c11.778-24.536,116.914-123.969,121.384-128.19a.638.638,0,0,1,.741-.1c4.162,2.229,51.006,34.673,63.825,54.829a.64.64,0,0,1-.027.726.65.65,0,0,1-.69.231c-.134-.042-13.79-3.788-31.257,8.071-4.582,3.109-9.235,6.1-13.733,9-13.209,8.5-24.616,15.841-28.162,22.088-1.992,3.514-.577,24.032,3.691,53.545,3.717,25.681,8.518,50.841,10.932,57.278a3.724,3.724,0,0,1-.314,3.139c-7.228,13.737-93.5,35.288-97.171,36.2A.667.667,0,0,1,3522.488,894.6ZM3494.64,778.178c.688,35.751,25.79,108,28.258,115.019,7.607-1.919,89.114-22.733,95.786-35.414a2.487,2.487,0,0,0,.25-2.094c-4.828-12.873-19.506-103.146-14.538-111.9,3.7-6.52,15.229-13.94,28.581-22.531,4.492-2.892,9.138-5.881,13.705-8.983,14.72-9.991,26.6-9.266,30.759-8.575-13.233-19.141-56.238-49.358-62.1-52.872C3608.571,657.235,3506.306,754.308,3494.64,778.178Z" transform="translate(-3493.361 -649.397)" fill="#1e252c"/>
  </g>
  <g id="Raggruppa_675" data-name="Raggruppa 675" transform="translate(17.995 167.644)">
    <path id="Tracciato_11016" data-name="Tracciato 11016" d="M3608.067,649.976c3.43,5.6,5.685,17.463-1.8,24.382s-54.291,21.746-67.3,30.641S3519.192,733,3519.192,733L3506.5,759.2s38.887-25.7,70.681-31.959c-.654-5.6-2-20.758-2-20.758s21.571-7.578,36.085-6.59c4.652-5.6,16.823-39.866,16.823-39.866Z" transform="translate(-3505.859 -649.339)" fill="#1e252c"/>
    <path id="Tracciato_11017" data-name="Tracciato 11017" d="M3506.557,759.9a.639.639,0,0,1-.575-.917l12.693-26.192c.042-.128,6.949-19.345,19.984-28.256,6.469-4.422,21.085-10.245,35.219-15.876,14.554-5.8,28.3-11.276,32.013-14.707,7.027-6.494,5.164-17.909,1.692-23.579a.637.637,0,0,1,.074-.766.645.645,0,0,1,.758-.139l20.015,10.048a.641.641,0,0,1,.314.785c-.5,1.4-12.26,34.438-16.932,40.062a.656.656,0,0,1-.534.229c-13.033-.906-32.137,5.309-35.362,6.4.239,2.666,1.379,15.284,1.958,20.24a.637.637,0,0,1-.511.7c-31.309,6.166-70.066,31.61-70.455,31.866A.628.628,0,0,1,3506.557,759.9Zm103.081-108.388c3,6.414,3.976,17.039-2.88,23.378-3.887,3.591-17.74,9.11-32.406,14.954-14.069,5.605-28.618,11.4-34.972,15.745-12.687,8.673-19.46,27.5-19.526,27.692L3508.118,757.5c8.179-5.168,40.981-25.117,68.421-30.709-.67-5.948-1.929-20.043-1.942-20.189a.639.639,0,0,1,.424-.659c.217-.075,21.507-7.493,36.006-6.646,4.343-5.73,14.784-34.6,16.323-38.893Z" transform="translate(-3505.918 -649.398)" fill="#1e252c"/>
  </g>
  <g id="Raggruppa_676" data-name="Raggruppa 676" transform="translate(114.054 221.587)">
    <path id="Tracciato_11018" data-name="Tracciato 11018" d="M3598.589,794.292c-2.156-15.857-7.009-51.174-3.8-55.21,6.133-7.706,24.134-19.11,42.091-31.3s31.794-8.154,31.794-8.154,8.222,13.014,4.283,33.524c-2.724,14.183-4.49,17.38-6.961,21.087,2.843,3.089,15.033,24.217,17.5,57.989.214,6.59-6.324,16.9-22.734,24.71-29.776,14.168-51.4,13.51-51.4,13.51l-9.245-46.045Z" transform="translate(-3593.09 -698.322)" fill="#2b3742"/>
    <path id="Tracciato_11019" data-name="Tracciato 11019" d="M3609.781,851.147c-.228,0-.354,0-.37,0a.64.64,0,0,1-.606-.512l-9.245-46.045-1.542-10.138v-.01l-.083-.6c-3.6-26.434-6.519-51.4-3.583-55.092,5.213-6.549,19.025-15.824,33.647-25.645,2.83-1.9,5.708-3.832,8.585-5.787,18-12.219,31.757-8.406,32.332-8.239a.634.634,0,0,1,.362.273c.083.132,8.311,13.463,4.37,33.987-2.608,13.58-4.344,17.191-6.791,20.919,3.044,3.847,14.873,24.2,17.346,57.987.226,7.047-6.829,17.594-23.1,25.334C3633.633,850.646,3612.782,851.147,3609.781,851.147Zm-10.5-56.884,1.536,10.1,9.137,45.505c3.418-.019,23.8-.7,50.6-13.448,15.748-7.494,22.582-17.511,22.371-24.116-2.511-34.316-15.121-55.168-17.337-57.575a.641.641,0,0,1-.061-.787c2.5-3.748,4.209-7.023,6.865-20.852,3.571-18.6-3.057-31.088-4.07-32.851-1.885-.436-14.812-2.873-31.022,8.131-2.879,1.953-5.759,3.887-8.59,5.788-14.538,9.765-28.27,18.987-33.36,25.381-3,3.772,1.975,40.353,3.85,54.126Z" transform="translate(-3593.148 -698.383)" fill="#1e252c"/>
  </g>
  <g id="Raggruppa_677" data-name="Raggruppa 677">
    <path id="Tracciato_11020" data-name="Tracciato 11020" d="M3562.919,497.161c17.456-.019,31.386,5.683,40.112,17.545s21.734,16.562,24.295,19.028c2.223,4.7-2.963,30.32-1.484,43.491,1.237,11,6.427,35.188,33.115,44.528,2.718,6.96,14.758,40.382-26.844,56.521-17.883,6.938-40.268-10.5-40.124-35.566s12.721-48.926,15.989-56.834-90.369-32.211-90.369,1.236,41.844,55.847,39.827,69.932,10.378,26.934-6.075,36.819-36.223,21.251-59.45-22.734c-3.461-9.142.246-23.969,6.918-27.923,4.98-2.951,21.993-18.368,16.515-31.382-6.379-15.156-21.21-17.008-25.509-44.984-1.192-7.768,1.582-23.465,11.471-34.633C3509.589,522.848,3526.977,497.2,3562.919,497.161Z" transform="translate(-3489.577 -497.161)" fill="#4b2b1b"/>
  </g>
  <g id="Raggruppa_678" data-name="Raggruppa 678" transform="translate(26.392 160.873)">
    <path id="Tracciato_11021" data-name="Tracciato 11021" d="M3579.926,643.9c-20.7,1.764-31.63,10.214-41.515,19.109s-35.583,32.948-19.933,70.673c0,0,6.755-19.11,19.77-28.006s59.817-23.722,67.3-30.641,5.231-18.781,1.8-24.382C3601.489,641.073,3586.963,643.3,3579.926,643.9Z" transform="translate(-3513.543 -643.248)" fill="#fbf7eb"/>
  </g>
  <g id="Raggruppa_679" data-name="Raggruppa 679" transform="translate(30.462 197.93)">
    <path id="Tracciato_11022" data-name="Tracciato 11022" d="M3531.225,677.353c-3.3,2.635-14.333,16.473-13.345,35.583" transform="translate(-3517.179 -676.854)" fill="#fbf7eb"/>
    <path id="Tracciato_11023" data-name="Tracciato 11023" d="M3517.3,713.014c-1.032-19.932,10.639-33.76,13.582-36.114l.8,1c-3.825,3.06-14.038,17.05-13.106,35.052Z" transform="translate(-3517.239 -676.9)" fill="#e5dfcf"/>
  </g>
  <g id="Raggruppa_680" data-name="Raggruppa 680" transform="translate(25.062 99.306)">
    <path id="Tracciato_11024" data-name="Tracciato 11024" d="M3512.49,587.34c.284,2.287,1.148,17.041-.155,19.018,2.641,2.183,6.1,5.74,8.242,6.268Z" transform="translate(-3512.335 -587.34)" fill="#21140f"/>
  </g>
  <g id="Raggruppa_681" data-name="Raggruppa 681" transform="translate(38.906 160.373)">
    <path id="Tracciato_11025" data-name="Tracciato 11025" d="M3593.19,642.795c-9.374,4.942-35.665,18.533-42.75,19.522-2.686.374-3.844-.142-4.237-1.057-.319-.738.339-1.677.535-2.693a23.649,23.649,0,0,0,.327-2.839c-.744.913-11.2,14.086-22.157,21.992,5.873-3.439,9.064-6.345,14.135-5.436,7.907,2.965,3.016,10.707,1.349,13.343,8.335-7.1,15.814-13.674,22.733-15.156s13.179-2.636,18.946-6.755,13.622-11.944,13.515-16.967Z" transform="translate(-3524.907 -642.795)" fill="#fbf7eb"/>
  </g>
  <g id="Raggruppa_682" data-name="Raggruppa 682" transform="translate(38.532 164.315)">
    <path id="Tracciato_11026" data-name="Tracciato 11026" d="M3537.64,688.478l2.247-3.554c1.122-1.773,3.749-5.924,2.683-9.1a5.669,5.669,0,0,0-3.716-3.307c-3.789-.671-6.476,1.009-10.557,3.545-.938.583-1.94,1.2-3.033,1.846l-.7-1.068a107.32,107.32,0,0,0,22.014-21.848l1.038.745a109.654,109.654,0,0,1-15.37,16.592,10.962,10.962,0,0,1,6.94-1.038c2.468.914,3.974,2.292,4.59,4.127.775,2.308-.009,4.906-1.011,7.012,7.431-6.316,13.951-11.6,20.26-12.947l1.2-.254c6.538-1.392,12.186-2.592,17.511-6.4,5.562-3.972,13.348-11.7,13.248-16.433l1.276-.028c.118,5.494-8.39,13.649-13.781,17.5-5.54,3.956-11.587,5.243-17.988,6.6l-1.2.255c-6.465,1.385-13.715,7.566-21.39,14.113Z" transform="translate(-3524.567 -646.374)" fill="#e5dfcf"/>
  </g>
  <g id="Raggruppa_683" data-name="Raggruppa 683" transform="translate(56.223 99.306)">
    <path id="Tracciato_11027" data-name="Tracciato 11027" d="M3543.331,646.679c.618,1.977,2.594,2.841,2.224,13.22s-4.923,16.186-4.923,16.186l62.18-33.968s-12.654-43.071-3.14-54.776Z" transform="translate(-3540.632 -587.34)" fill="#e69f85"/>
  </g>
  <g id="Raggruppa_684" data-name="Raggruppa 684" transform="translate(58.922 99.306)">
    <path id="Tracciato_11028" data-name="Tracciato 11028" d="M3545.079,652.632c-.884-4.594-1.379-3.976-2-5.953l56.34-59.339c-9.514,11.706,3.14,54.776,3.14,54.776l-25.992,14.2Z" transform="translate(-3543.083 -587.34)" fill="#d67663"/>
  </g>
  <g id="Raggruppa_685" data-name="Raggruppa 685" transform="translate(18.634 12.047)">
    <path id="Tracciato_11029" data-name="Tracciato 11029" d="M3615.913,562.809c0,30.215-24.493,50.621-54.707,50.621s-54.709-20.406-54.709-50.621a54.708,54.708,0,1,1,109.415,0Z" transform="translate(-3506.498 -508.101)" fill="#e69f85"/>
  </g>
  <g id="Raggruppa_686" data-name="Raggruppa 686" transform="translate(24.113 32.866)">
    <path id="Tracciato_11030" data-name="Tracciato 11030" d="M3603.117,582.111c0,25.794-47.737,74.465-58.786,74.465s-23.5-35.175-31.161-60.874c-7.369-24.719,9.636-68.7,43.833-68.7C3591.256,527.006,3603.117,556.318,3603.117,582.111Z" transform="translate(-3511.473 -527.006)" fill="#e69f85"/>
  </g>
  <g id="Raggruppa_687" data-name="Raggruppa 687" transform="translate(46.402 70.907)">
    <path id="Tracciato_11031" data-name="Tracciato 11031" d="M3533.237,561.564c2.1-.154,5.56,1.112,7.908,1.112s9.637-.618,12.85,0,17.173,5.807,20.634,8.031c-9.267-2.718-16.186-6.178-21.623-6.055s-13.221,4.2-16.557,4.078-4.077-1.359-4.571-3.15S3532.051,561.652,3533.237,561.564Z" transform="translate(-3531.714 -561.551)" fill="#4b2b1b"/>
  </g>
  <g id="Raggruppa_688" data-name="Raggruppa 688" transform="translate(19.878 70.907)">
    <path id="Tracciato_11032" data-name="Tracciato 11032" d="M3527.706,561.551c-1.05,1.112-2.965,2.3-6.671,1.866-5.172-.6-6.673-.926-8.217-1.049s-4.324,3.644-5.19,5c1.978-.989,3.1-2.859,4.51-2.41a38.207,38.207,0,0,0,10.317,1.977c1.916,0,4.723-.061,4.845-1.543C3527.486,563.172,3527.706,561.551,3527.706,561.551Z" transform="translate(-3507.628 -561.551)" fill="#4b2b1b"/>
  </g>
  <g id="Raggruppa_689" data-name="Raggruppa 689" transform="translate(57.501 76.634)">
    <path id="Tracciato_11033" data-name="Tracciato 11033" d="M3541.793,576.544c.741-1.112,2.719-6.671,5.312-8.154,2.52-1.439,8.649-4.386,24.711,4.572-2.41,2.408-6.98,10.811-15.877,11.182S3541.793,576.544,3541.793,576.544Z" transform="translate(-3541.793 -566.752)" fill="#fff"/>
  </g>
  <g id="Raggruppa_690" data-name="Raggruppa 690" transform="translate(29.019 77.715)">
    <path id="Tracciato_11034" data-name="Tracciato 11034" d="M3528.967,574.777c-.119-1.684-4.573-7.105-8.588-7.043s-4.385,3.212-4.448,4.386.741,9.415,10.5,11.936C3527.36,581.881,3529.246,578.792,3528.967,574.777Z" transform="translate(-3515.928 -567.734)" fill="#fff"/>
  </g>
  <g id="Raggruppa_691" data-name="Raggruppa 691" transform="translate(28.896 78.745)">
    <path id="Tracciato_11035" data-name="Tracciato 11035" d="M3527.967,568.669c.989.989,2.966,4.66,2.554,7.5s-10.543,28.417-11.2,29.9-4.2,5.354-3.38,9.39a5.788,5.788,0,0,0,6.4,4.758c2.832-.228,8.846-3.77,10.575-4.1l1.854-40.855Z" transform="translate(-3515.816 -568.669)" fill="#e69f85"/>
  </g>
  <g id="Raggruppa_692" data-name="Raggruppa 692" transform="translate(49.223 111.633)">
    <path id="Tracciato_11036" data-name="Tracciato 11036" d="M3534.912,611.917a.638.638,0,0,1-.123-1.264c1.851-.37,5.714-1.7,5.83-3.452.143-2.16-.575-2.965-1.294-3.471-.846-.591-3.209-3.3-3.318-4.5a.642.642,0,0,1,.578-.694.667.667,0,0,1,.694.579,11.092,11.092,0,0,0,2.777,3.569c.881.616,2.027,1.762,1.838,4.6-.218,3.257-6.584,4.566-6.856,4.619A.59.59,0,0,1,3534.912,611.917Z" transform="translate(-3534.276 -598.534)" fill="#c65d43"/>
  </g>
  <g id="Raggruppa_693" data-name="Raggruppa 693" transform="translate(42.715 127.034)">
    <path id="Tracciato_11037" data-name="Tracciato 11037" d="M3535.644,621.554a14.089,14.089,0,0,1-6.993-1.686.639.639,0,0,1,.709-1.063,13.8,13.8,0,0,0,8.686,1.28c4.553-.74,13.676-4.887,17.162-7.441a.639.639,0,1,1,.756,1.03c-3.592,2.632-13.006,6.907-17.714,7.67A16.159,16.159,0,0,1,3535.644,621.554Z" transform="translate(-3528.366 -612.52)" fill="#812c1c"/>
  </g>
  <g id="Raggruppa_694" data-name="Raggruppa 694" transform="translate(64.566 77.129)">
    <path id="Tracciato_11038" data-name="Tracciato 11038" d="M3561.84,574.146a6.891,6.891,0,0,1-6.17,6.944c-3.6.515-7.01-3.13-7.423-6.944a6.164,6.164,0,0,1,6.1-6.945C3557.978,567.2,3561.84,570.311,3561.84,574.146Z" transform="translate(-3548.208 -567.201)" fill="#21140f"/>
  </g>
  <g id="Raggruppa_695" data-name="Raggruppa 695" transform="translate(151.814 276.796)">
    <path id="Tracciato_11039" data-name="Tracciato 11039" d="M3628.018,755.714c5.313-3.3,22.816-7.166,34.513-6.548" transform="translate(-3627.38 -748.459)" fill="#2b3742"/>
    <path id="Tracciato_11040" data-name="Tracciato 11040" d="M3628.076,756.411a.638.638,0,0,1-.336-1.18c5.552-3.449,23.094-7.278,34.883-6.644a.639.639,0,0,1,.6.672.618.618,0,0,1-.67.6c-11.266-.6-28.794,3.13-34.143,6.454A.636.636,0,0,1,3628.076,756.411Z" transform="translate(-3627.438 -748.518)" fill="#1e252c"/>
  </g>
  <g id="Raggruppa_696" data-name="Raggruppa 696" transform="translate(16.332 13.936)">
    <path id="Tracciato_11041" data-name="Tracciato 11041" d="M3527.305,530.875c7.33-8.192,10.62-17.207,7.349-20.135s-11.868,1.339-19.2,9.531-13.413,19.632-10.14,22.56S3519.975,539.067,3527.305,530.875Z" transform="translate(-3504.407 -509.817)" fill="#4b2b1b"/>
  </g>
  <g id="Raggruppa_697" data-name="Raggruppa 697" transform="translate(4.595 34.846)">
    <ellipse id="Ellisse_104" data-name="Ellisse 104" cx="19.905" cy="7.951" rx="19.905" ry="7.951" transform="translate(0 38.563) rotate(-75.622)" fill="#4b2b1b"/>
  </g>
  <g id="Raggruppa_698" data-name="Raggruppa 698" transform="translate(16.601 14.222)">
    <path id="Tracciato_11042" data-name="Tracciato 11042" d="M3507.453,544.12a3.757,3.757,0,0,1-2.588-.839.638.638,0,0,1,.851-.952c2.756,2.47,13.8-3.76,21.088-11.9,6.965-7.782,10.352-16.591,7.4-19.236a.638.638,0,0,1,.85-.95c3.59,3.212.382,12.454-7.3,21.036C3521.7,538.037,3512.548,544.12,3507.453,544.12Z" transform="translate(-3504.652 -510.076)" fill="#372214"/>
  </g>
  <g id="Raggruppa_699" data-name="Raggruppa 699" transform="translate(11.659 44.714)">
    <path id="Tracciato_11043" data-name="Tracciato 11043" d="M3501.608,569.174a3.912,3.912,0,0,1-.965-.12.639.639,0,0,1,.316-1.238c3.848,1,9.276-6.729,11.869-16.846a41.119,41.119,0,0,0,1.366-12.52.638.638,0,1,1,1.273-.087,42.432,42.432,0,0,1-1.4,12.924C3511.4,561.686,3506.095,569.174,3501.608,569.174Z" transform="translate(-3500.164 -537.766)" fill="#372214"/>
  </g>
  <g id="Raggruppa_700" data-name="Raggruppa 700" transform="translate(104.266 92.666)">
    <rect id="Rettangolo_119" data-name="Rettangolo 119" width="12.234" height="22.734" fill="#c65d43"/>
  </g>
  <g id="Raggruppa_701" data-name="Raggruppa 701" transform="translate(47.047 6.674)">
    <path id="Tracciato_11044" data-name="Tracciato 11044" d="M3544.78,537.713c11.455,11.456,26.489,12.783,35.065,12.21,7.376-.492-1.6-22.765-13.054-34.221s-25.67-15.814-31.747-9.737S3533.324,526.257,3544.78,537.713Z" transform="translate(-3532.3 -503.222)" fill="#4b2b1b"/>
  </g>
  <g id="Raggruppa_702" data-name="Raggruppa 702" transform="translate(46.407 13.299)">
    <path id="Tracciato_11045" data-name="Tracciato 11045" d="M3576.677,550.058c-7.783,0-21.533-1.747-32.289-12.5-9.108-9.108-14.062-20.289-12.325-27.822a.638.638,0,1,1,1.244.286c-1.641,7.121,3.176,17.824,11.984,26.633,12.126,12.126,28.211,12.456,34.571,12.026a.638.638,0,0,1,.084,1.274C3579.038,550.012,3577.935,550.058,3576.677,550.058Z" transform="translate(-3531.719 -509.238)" fill="#372214"/>
  </g>
  <g id="Raggruppa_703" data-name="Raggruppa 703" transform="translate(28.257 78.107)">
    <path id="Tracciato_11046" data-name="Tracciato 11046" d="M3521.858,620.93a6.383,6.383,0,0,1-6.487-5.29c-.683-3.366,1.4-6.575,2.649-8.494a11.731,11.731,0,0,0,.774-1.282c.615-1.383,10.759-27.008,11.154-29.733.377-2.6-1.514-6.1-2.372-6.953a.638.638,0,0,1,.9-.9c1.157,1.154,3.169,5.038,2.735,8.038-.442,3.038-10.685,28.791-11.25,30.069a12.306,12.306,0,0,1-.869,1.46c-1.215,1.867-3.049,4.689-2.469,7.544a5.147,5.147,0,0,0,5.719,4.249c1.589-.129,4.435-1.46,6.724-2.531a21.971,21.971,0,0,1,3.783-1.559.638.638,0,0,1,.239,1.254,23.461,23.461,0,0,0-3.48,1.46c-2.506,1.174-5.343,2.5-7.164,2.647C3522.25,620.924,3522.054,620.93,3521.858,620.93Z" transform="translate(-3515.237 -568.09)" fill="#c65d43"/>
  </g>
  <g id="Raggruppa_704" data-name="Raggruppa 704" transform="translate(102.412 80.063)">
    <path id="Tracciato_11047" data-name="Tracciato 11047" d="M3598.565,578.515c-3.268,7.908-15.844,31.768-15.988,56.834s22.239,42.5,40.123,35.566c41.6-16.138,29.56-49.561,26.842-56.521-26.686-9.34-31.876-33.532-33.111-44.528Z" transform="translate(-3582.576 -569.866)" fill="#4b2b1b"/>
  </g>
  <g id="Raggruppa_705" data-name="Raggruppa 705" transform="translate(101.773 88.072)">
    <path id="Tracciato_11048" data-name="Tracciato 11048" d="M3614.475,672.354A28.663,28.663,0,0,1,3598.281,667c-10.273-7.079-16.361-19.185-16.284-32.388.127-21.682,9.617-42.739,14.179-52.859.761-1.693,1.4-3.111,1.858-4.216a.638.638,0,1,1,1.179.486c-.46,1.117-1.106,2.547-1.874,4.254-4.525,10.04-13.939,30.931-14.064,52.343-.075,12.778,5.805,24.49,15.731,31.328,7.531,5.19,16.1,6.516,23.522,3.638a.638.638,0,0,1,.461,1.189A23.447,23.447,0,0,1,3614.475,672.354Z" transform="translate(-3581.996 -577.139)" fill="#372214"/>
  </g>
  <g id="Raggruppa_706" data-name="Raggruppa 706" transform="translate(110.256 99.935)">
    <path id="Tracciato_11049" data-name="Tracciato 11049" d="M3590.382,622.408a.637.637,0,0,1-.638-.61c-.559-12.267,4.136-28.591,7.573-33.609a.638.638,0,1,1,1.052.721c-3.338,4.876-7.9,20.81-7.35,32.831a.638.638,0,0,1-.61.666Z" transform="translate(-3589.699 -587.911)" fill="#372214"/>
  </g>
  <g id="Raggruppa_707" data-name="Raggruppa 707" transform="translate(100.744 64.164)">
    <ellipse id="Ellisse_105" data-name="Ellisse 105" cx="18.268" cy="11.582" rx="18.268" ry="11.582" transform="translate(0 35.392) rotate(-75.622)" fill="#d67663"/>
  </g>
  <g id="Raggruppa_708" data-name="Raggruppa 708" transform="translate(107.828 67.44)">
    <path id="Tracciato_11050" data-name="Tracciato 11050" d="M3588.134,586.863a.639.639,0,0,1-.233-1.233c2-.778,5.014-3.811,5.466-8.12.318-3.032-.492-3.928-1.719-5.287a14.882,14.882,0,0,1-1.71-2.176c-.727-1.164-.589-2.853.387-4.759,1.609-3.141,5.487-6.619,9.5-6.883a.664.664,0,0,1,.679.6.639.639,0,0,1-.6.678c-3.547.232-7,3.363-8.451,6.19-.75,1.469-.912,2.746-.439,3.5a13.79,13.79,0,0,0,1.573,2c1.3,1.437,2.42,2.678,2.043,6.275a11.41,11.41,0,0,1-6.271,9.177A.646.646,0,0,1,3588.134,586.863Z" transform="translate(-3587.495 -558.402)" fill="#c65d43"/>
  </g>
  <g id="Raggruppa_709" data-name="Raggruppa 709" transform="translate(82.339 60.401)">
    <path id="Tracciato_11051" data-name="Tracciato 11051" d="M3584.729,552.722c-.742-2.224,4.572,11.613,1.36,21.869s-11.367,24.094-21.128,37.066c1.112,6.549,3.83,13.715,8.525,15.336,5.666-3.218,16.928-22.255,17.915-24.355s-8.525-18.533-2.764-33.36c1.513-3.9,4.643-7.67,6.763-8.89" transform="translate(-3564.285 -551.963)" fill="#372214"/>
    <path id="Tracciato_11052" data-name="Tracciato 11052" d="M3573.613,627.738l-.273-.094c-6-2.071-8.253-11.763-8.946-15.832l-.046-.272.166-.219c10.321-13.719,17.985-27.158,21.027-36.873,2.722-8.688-.842-20-1.34-21.481l-.016,0c-.095-.284-.224-.673.153-.954l.751-.007a1.19,1.19,0,0,1,.218.391l.034-.008.054.173-.017.007a45.075,45.075,0,0,1,2.27,17.789c.14-.425.29-.847.456-1.269,1.617-4.162,4.848-7.951,7.04-9.211l.636,1.107c-1.956,1.125-4.993,4.72-6.487,8.566-4.04,10.4-.329,21.868,1.664,28.028,1.02,3.153,1.455,4.581,1.083,5.374-.981,2.088-12.3,21.3-18.178,24.638Zm-7.913-15.869c1.348,7.668,4.237,13.029,7.784,14.467,5.459-3.462,16.213-21.39,17.4-23.922.152-.436-.536-2.561-1.143-4.436-1.624-5.022-4.361-13.482-3.3-22.178C3583.189,585.5,3575.686,598.561,3565.7,611.868Z" transform="translate(-3564.348 -552.011)" fill="#372214"/>
  </g>
  <g id="Raggruppa_710" data-name="Raggruppa 710" transform="translate(63.16 8.185)">
    <path id="Tracciato_11053" data-name="Tracciato 11053" d="M3572.866,549.925c17.189,8.746,36.629,25.137,43.219,32.36,3.168-34.066-8.651-53.973-21.087-64.356s-40.3-17.831-46.66-10.214S3558.427,542.579,3572.866,549.925Z" transform="translate(-3546.931 -504.594)" fill="#4b2b1b"/>
  </g>
  <g id="Raggruppa_713" data-name="Raggruppa 713" transform="translate(29.019 77.715)">
    <g id="Raggruppa_712" data-name="Raggruppa 712" clip-path="url(#clip-path)">
      <g id="Raggruppa_711" data-name="Raggruppa 711" transform="translate(4.286 1.03)">
        <path id="Tracciato_11054" data-name="Tracciato 11054" d="M3529.169,574.477c0,3.207-1.1,5.807-4.035,5.807s-5.314-3.055-5.314-6.261,2.009-5.353,4.942-5.353S3529.169,571.269,3529.169,574.477Z" transform="translate(-3519.82 -568.669)" fill="#21140f"/>
      </g>
    </g>
  </g>
  <g id="Raggruppa_714" data-name="Raggruppa 714" transform="translate(14.418 298.338)">
    <ellipse id="Ellisse_106" data-name="Ellisse 106" cx="7.245" cy="3.295" rx="7.245" ry="3.295" transform="translate(0 14.621) rotate(-82.919)" fill="#1e252c"/>
    <path id="Tracciato_11056" data-name="Tracciato 11056" d="M3506.12,783.758a2.264,2.264,0,0,1-.272-.018c-1.137-.141-2.054-1.149-2.581-2.836a13.379,13.379,0,0,1-.35-5.471c.555-4.461,2.67-7.593,4.875-7.339,2.225.276,3.486,3.848,2.932,8.308h0C3510.19,780.679,3508.241,783.758,3506.12,783.758Zm1.4-14.4c-1.236,0-2.874,2.483-3.341,6.235a12.081,12.081,0,0,0,.3,4.934c.364,1.164.919,1.875,1.521,1.95,1.232.177,2.97-2.364,3.451-6.23h0c.477-3.864-.577-6.728-1.823-6.884A.885.885,0,0,0,3507.524,769.355Zm2.565,6.969h0Z" transform="translate(-3502.657 -768.08)" fill="#1e252c"/>
  </g>
  <g id="Raggruppa_715" data-name="Raggruppa 715" transform="translate(19.699 335.885)">
    <ellipse id="Ellisse_107" data-name="Ellisse 107" cx="2.132" cy="6.631" rx="2.132" ry="6.631" transform="translate(0.177 0.814) rotate(-4.552)" fill="#1e252c"/>
    <path id="Tracciato_11057" data-name="Tracciato 11057" d="M3510.764,816.681c-.608,0-1.447-.408-2.191-2.214a18.587,18.587,0,0,1-.775-9.737c.475-2.016,1.306-2.5,1.919-2.546.61-.072,1.509.293,2.3,2.209a16.549,16.549,0,0,1,1.04,4.817h0a16.529,16.529,0,0,1-.265,4.922c-.474,2.016-1.306,2.5-1.918,2.546C3510.838,816.68,3510.8,816.681,3510.764,816.681Zm-.942-13.225h0c-.089.007-.478.294-.778,1.567a17.3,17.3,0,0,0,.712,8.959c.5,1.207.985,1.438,1.017,1.424.088-.008.478-.294.777-1.567a15.226,15.226,0,0,0,.236-4.526h0a15.306,15.306,0,0,0-.948-4.432C3510.345,803.688,3509.92,803.456,3509.822,803.456Z" transform="translate(-3507.466 -802.175)" fill="#1e252c"/>
  </g>
  <g id="Raggruppa_716" data-name="Raggruppa 716" transform="translate(26.548 371.944)">
    <ellipse id="Ellisse_108" data-name="Ellisse 108" cx="2.132" cy="6.631" rx="2.132" ry="6.631" transform="matrix(0.992, -0.13, 0.13, 0.992, 0, 0.924)" fill="#1e252c"/>
    <path id="Tracciato_11058" data-name="Tracciato 11058" d="M3517.425,849.361c-.6,0-1.429-.4-2.232-2.1a18.525,18.525,0,0,1-1.27-9.686c.373-2.037,1.178-2.559,1.788-2.64s1.525.217,2.409,2.09a16.655,16.655,0,0,1,1.285,4.756h0c.454,3.473.084,7.322-1.8,7.57A1.35,1.35,0,0,1,3517.425,849.361Zm-1.54-13.16h-.008c-.087.011-.463.316-.7,1.6a17.291,17.291,0,0,0,1.168,8.911c.556,1.178,1,1.434,1.087,1.369.431-.056,1.209-2.277.7-6.136a15.285,15.285,0,0,0-1.174-4.377C3516.42,836.419,3515.988,836.2,3515.885,836.2Z" transform="translate(-3513.679 -834.921)" fill="#1e252c"/>
  </g>
  <g id="Raggruppa_717" data-name="Raggruppa 717" transform="translate(72.672 38.303)">
    <path id="Tracciato_11059" data-name="Tracciato 11059" d="M3615.211,580.155a.632.632,0,0,1-.471-.208c-5.94-6.509-25.27-23.182-43.038-32.221-5.122-2.606-10.955-7.987-16-14.762a.639.639,0,1,1,1.024-.763c4.937,6.623,10.606,11.868,15.558,14.389,16.524,8.405,36.152,24.55,43.4,32.5a.637.637,0,0,1-.042.9A.628.628,0,0,1,3615.211,580.155Z" transform="translate(-3555.57 -531.943)" fill="#372214"/>
  </g>
  <g id="Raggruppa_718" data-name="Raggruppa 718" transform="translate(117.725 105.373)">
    <path id="Tracciato_11060" data-name="Tracciato 11060" d="M3597.138,607.344a.637.637,0,0,1-.636-.6c-.207-3.228,1.2-11.206,2.384-13.55a.638.638,0,1,1,1.138.576c-1.07,2.117-2.437,9.947-2.249,12.891a.638.638,0,0,1-.6.678Z" transform="translate(-3596.482 -592.849)" fill="#372214"/>
  </g>
  <g id="Raggruppa_719" data-name="Raggruppa 719" transform="translate(7.924 138.648)">
    <path id="Tracciato_11061" data-name="Tracciato 11061" d="M3501.146,658.446a.638.638,0,0,1-.527-.279c-5.408-7.9-4.264-16.643-1.727-20.327,1.818-2.635,4.775-4.346,7.9-6.158,3.7-2.143,7.528-4.359,9.691-8.285a.638.638,0,0,1,1.117.616c-2.334,4.237-6.316,6.543-10.168,8.773-3,1.738-5.838,3.378-7.492,5.779-2.333,3.383-3.339,11.479,1.728,18.881a.639.639,0,0,1-.527,1Z" transform="translate(-3496.772 -623.066)" fill="#372214"/>
  </g>
  <g id="Raggruppa_720" data-name="Raggruppa 720" transform="translate(13.791 151.005)">
    <path id="Tracciato_11062" data-name="Tracciato 11062" d="M3503.163,647.26a.64.64,0,0,1-.586-.384,7.145,7.145,0,0,1,.325-5.818,13.058,13.058,0,0,1,7.977-6.741.638.638,0,0,1,.385,1.217,11.776,11.776,0,0,0-7.2,6.052,5.9,5.9,0,0,0-.315,4.78.64.64,0,0,1-.331.841A.665.665,0,0,1,3503.163,647.26Z" transform="translate(-3502.1 -634.288)" fill="#372214"/>
  </g>
  <g id="Raggruppa_721" data-name="Raggruppa 721" transform="translate(102.173 54.662)">
    <path id="Tracciato_11063" data-name="Tracciato 11063" d="M3608.146,562.678a.639.639,0,0,1-.487-.228c-6.319-7.483-18.587-12.573-24.84-14.4a.638.638,0,0,1,.359-1.224c6.389,1.867,18.943,7.087,25.457,14.8a.639.639,0,0,1-.488,1.051Z" transform="translate(-3582.36 -546.8)" fill="#372214"/>
  </g>
  <g id="Raggruppa_722" data-name="Raggruppa 722" transform="translate(90.778 44.718)">
    <path id="Tracciato_11064" data-name="Tracciato 11064" d="M3605.885,549.791a.636.636,0,0,1-.359-.111c-5.353-3.64-12.748-5.107-19.271-6.4-5.534-1.1-10.762-2.139-13.967-4.343a.638.638,0,1,1,.723-1.052c2.989,2.056,8.092,3.069,13.494,4.143,6.642,1.319,14.172,2.816,19.74,6.6a.639.639,0,0,1-.359,1.166Z" transform="translate(-3572.011 -537.769)" fill="#372214"/>
  </g>
  <g id="Raggruppa_723" data-name="Raggruppa 723" transform="translate(48.482 142.368)">
    <path id="Tracciato_11065" data-name="Tracciato 11065" d="M3534.239,627.791a.638.638,0,0,1-.053-1.274c1.771-.157,5.14-.009,5.282,0a.636.636,0,0,1,.608.666.612.612,0,0,1-.666.608c-.034,0-3.424-.15-5.112,0Z" transform="translate(-3533.603 -626.445)" fill="#c65d43"/>
  </g>
</svg>
