<?xml version="1.0" encoding="utf-8"?>
<!-- Generator: $$$/GeneralStr/196=Adobe Illustrator 27.6.0, SVG Export Plug-In . SVG Version: 6.00 Build 0)  -->
<svg version="1.1" id="Livello_1" xmlns="http://www.w3.org/2000/svg" xmlns:xlink="http://www.w3.org/1999/xlink" x="0px" y="0px"
	 viewBox="0 0 512 512" style="enable-background:new 0 0 512 512;" xml:space="preserve">
<style type="text/css">
	.st0{fill:#FFFFFF;}
	.st1{fill:#CB1619;}
</style>
<circle id="Ellisse_37" class="st0" cx="255.4" cy="255.6" r="255.2"/>
<circle id="Ellisse_29" class="st1" cx="255.4" cy="255.6" r="209.3"/>
<g id="_21_-_30">
	<g id="Art">
		<path class="st0" d="M374.5,228.6c-1.9-4.1-3.9-8.1-6.2-12L339,296.1c-1.1,3-2.7,5.7-4.8,8.1c28.2-2.8,48.8-27.9,46-56.1
			c-0.5-4.6-1.5-9.1-3.2-13.4C376.2,232.6,375.4,230.6,374.5,228.6L374.5,228.6z"/>
		<path class="st0" d="M206.4,156.9c-70.1,25-106.8,102.1-81.8,172.2c0.6,1.6,1.2,3.2,1.8,4.8c0.2,0.4,0.3,0.7,0.5,1.1
			c10.9,26.1,40.9,38.4,67.1,27.5c9.3-3.9,17.2-10.4,22.8-18.7c10.8-16.2,26.3-28.8,44.4-36c0.6-0.2,1.1-0.4,1.7-0.6
			c4.1-9.5,12.2-16.8,22.1-19.8c-0.1-4.3,0.8-8.6,2.6-12.5l45.3-98.1C296.7,149.3,249.2,141.9,206.4,156.9L206.4,156.9z
			 M171.3,306.6c-12.7,0-22.9-10.3-22.9-22.9c0-12.7,10.3-22.9,22.9-22.9s22.9,10.3,22.9,22.9C194.2,296.3,184,306.6,171.3,306.6z
			 M200,240.6c-12.7,0-22.9-10.3-22.9-22.9s10.3-22.9,22.9-22.9c12.7,0,22.9,10.3,22.9,22.9S212.6,240.6,200,240.6L200,240.6z
			 M268.8,220.6c-12.7,0-22.9-10.3-22.9-22.9s10.3-22.9,22.9-22.9s22.9,10.3,22.9,22.9S281.4,220.6,268.8,220.6z"/>
		<path class="st0" d="M371.9,144c-5.3-2.2-11.4,0.2-13.8,5.4L298,279.6c-2.8,6.1-1.6,13.4,3.1,18.2c-11.5-2.7-23.3,3.3-27.9,14.3
			c-9.3,22.4,5.4,32.3-3.9,54.7c21.6-2.4,40.2-16.2,48.7-36.1c4.1-9.9,1.2-21.3-7.2-28c7.6,1,14.8-3.4,17.4-10.5l49.5-134.6
			C379.8,152.1,377.1,146.2,371.9,144L371.9,144z"/>
	</g>
</g>
</svg>
