<?xml version="1.0" encoding="utf-8"?>
<!-- Generator: $$$/GeneralStr/196=Adobe Illustrator 27.6.0, SVG Export Plug-In . SVG Version: 6.00 Build 0)  -->
<svg version="1.1" id="Capa_1" xmlns="http://www.w3.org/2000/svg" xmlns:xlink="http://www.w3.org/1999/xlink" x="0px" y="0px"
	 viewBox="0 0 512 512" style="enable-background:new 0 0 512 512;" xml:space="preserve">
<style type="text/css">
	.st0{fill:#FFFFFF;}
	.st1{fill:#CB1619;}
</style>
<circle id="Ellisse_37_00000075854099618292727040000001564023983636132995_" class="st0" cx="255.5" cy="255.2" r="255.2"/>
<circle id="Ellisse_29_00000054952137736098796320000007282198008049087113_" class="st1" cx="255.5" cy="255.2" r="209.3"/>
<path class="st0" d="M292.9,207.1H173.6c-0.9,0-1.9-0.2-2.8-0.6l-36.7-16.1c-2.5-1.1-4.1-3.6-4.1-6.3s1.6-5.2,4.1-6.3l36.7-16.1
	c0.9-0.4,1.8-0.6,2.8-0.6h119.3c3.8,0,6.9,3.1,6.9,6.9v32.1C299.8,204,296.7,207.1,292.9,207.1L292.9,207.1z"/>
<path class="st0" d="M321.4,264H202.1c-3.8,0-6.9-3.1-6.9-6.9V225c0-3.8,3.1-6.9,6.9-6.9h119.3c0.9,0,1.9,0.2,2.8,0.6l36.7,16.1
	c2.5,1.1,4.1,3.6,4.1,6.3s-1.6,5.2-4.1,6.3l-36.7,16.1C323.3,263.8,322.3,264,321.4,264z"/>
<path class="st0" d="M263.6,153.4v-16.5c0-3.8-3.1-6.9-6.9-6.9h-18.4c-3.8,0-6.9,3.1-6.9,6.9v16.5H263.6z"/>
<path class="st0" d="M263.6,365v-90.4h-32.1V365C240.9,365,257,365,263.6,365z"/>
</svg>
