<?xml version="1.0" encoding="utf-8"?>
<!-- Generator: $$$/GeneralStr/196=Adobe Illustrator 27.6.0, SVG Export Plug-In . SVG Version: 6.00 Build 0)  -->
<svg version="1.1"
	 id="Livello_1" shape-rendering="geometricPrecision" text-rendering="geometricPrecision" image-rendering="optimizeQuality"
	 xmlns="http://www.w3.org/2000/svg" xmlns:xlink="http://www.w3.org/1999/xlink" x="0px" y="0px" viewBox="0 0 512 512"
	 style="enable-background:new 0 0 512 512;" xml:space="preserve">
<style type="text/css">
	.st0{fill:#FFFFFF;}
	.st1{fill:#CB1619;}
	.st2{fill-rule:evenodd;clip-rule:evenodd;fill:#FFFFFF;}
</style>
<circle id="Ellisse_37_00000075854099618292727040000001564023983636132995_" class="st0" cx="256" cy="256" r="255.2"/>
<circle id="Ellisse_29_00000054952137736098796320000007282198008049087113_" class="st1" cx="256" cy="256" r="209.3"/>
<g id="Layer_x0020_1">
	<path class="st2" d="M186.7,334.1c-5,0-9.3-1.1-12.6-3.4l188.6-188.6c6.5,9.2,3.8,26.3-8,48.5c-12.2,23.2-32.5,49.7-57.4,74.6
		c-1.8,1.6-3.4,3.4-5.1,5c-0.1,0.1-0.4,0.4-0.8,0.5l-18.7,8.1l3,1.4c0.8,0.4,1.5,1.1,1.6,2s-0.3,1.9-0.9,2.4
		C241.4,315.1,207,334.1,186.7,334.1z M170.3,326.8c-5.7-8-4.3-21.8,3.9-40.2c0.3-0.5,0.8-1.1,1.4-1.4l20.2-8.8l-10.4-4.5
		c-0.7-0.4-1.2-0.9-1.5-1.8c-0.3-0.7-0.1-1.5,0.3-2.2c12.6-20.9,30.5-43.1,51.7-64.3c17.6-17.6,36.4-33.3,54.2-45.2
		c0.7-0.4,1.5-0.5,2.3-0.4c0.7,0.3,1.4,0.8,1.6,1.6l2.3,5.1l6-13.4c0.3-0.5,0.5-0.9,1.1-1.4c17.3-10,32.2-15.3,43.1-15.3
		c5.1,0,9.3,1.2,12.6,3.5L170.3,326.8z"/>
	<path class="st2" d="M137.8,365.9c-0.7,0-1.4-0.3-1.9-0.8c-1.1-1.1-1.1-2.8,0-3.9l29.9-29.8l2.2,1.6l1.6,2.2l0.7-0.7l-30.6,30.6
		C139.1,365.7,138.5,365.9,137.8,365.9z"/>
	<path class="st2" d="M360.1,365.9H137.8c-1.5,0-2.7-1.2-2.7-2.7c0-1.5,1.2-2.7,2.7-2.7h222.4c1.5,0,2.7,1.2,2.7,2.7
		C362.8,364.7,361.6,365.9,360.1,365.9z"/>
</g>
</svg>
