<?xml version="1.0" encoding="utf-8"?>
<!-- Generator: $$$/GeneralStr/196=Adobe Illustrator 27.6.0, SVG Export Plug-In . SVG Version: 6.00 Build 0)  -->
<svg version="1.1" id="Livello_1" xmlns="http://www.w3.org/2000/svg" xmlns:xlink="http://www.w3.org/1999/xlink" x="0px" y="0px"
	 viewBox="0 0 512 512" style="enable-background:new 0 0 512 512;" xml:space="preserve">
<style type="text/css">
	.st0{fill:#FFFFFF;}
	.st1{fill:#CB1619;}
</style>
<circle id="Ellisse_37" class="st0" cx="256.2" cy="256.7" r="255.8"/>
<circle id="Ellisse_29" class="st1" cx="256.2" cy="256.7" r="209.8"/>
<g>
	<g>
		<g>
			<path class="st0" d="M113.8,146.5v29.7c9.9,0,17.8,8,17.8,17.8v11.9h35.7v-11.9c0-9.9,8-17.8,17.8-17.8s17.8,8,17.8,17.8v11.9
				h35.7v-11.9c0-9.9,8-17.8,17.8-17.8c9.9,0,17.8,8,17.8,17.8v11.9H310v-11.9c0-9.9,8-17.8,17.8-17.8c9.9,0,17.8,8,17.8,17.8v11.9
				h35.7v-11.9c0-9.9,8-17.8,17.8-17.8v-29.7H113.8z"/>
		</g>
	</g>
	<g>
		<g>
			<rect x="113.8" y="348.6" class="st0" width="285.4" height="17.8"/>
		</g>
	</g>
	<g>
		<g>
			<path class="st0" d="M113.8,223.8v29.7c9.9,0,17.8,8,17.8,17.8v59.5h35.7v-59.5c0-9.9,8-17.8,17.8-17.8s17.8,8,17.8,17.8v59.5
				h35.7v-59.5c0-9.9,8-17.8,17.8-17.8c9.9,0,17.8,8,17.8,17.8v59.5H310v-59.5c0-9.9,8-17.8,17.8-17.8c9.9,0,17.8,8,17.8,17.8v59.5
				h35.7v-59.5c0-9.9,8-17.8,17.8-17.8v-29.7L113.8,223.8L113.8,223.8z"/>
		</g>
	</g>
</g>
</svg>
