<?xml version="1.0" encoding="utf-8"?>
<!-- Generator: $$$/GeneralStr/196=Adobe Illustrator 27.6.0, SVG Export Plug-In . SVG Version: 6.00 Build 0)  -->
<svg version="1.1"
	 id="Livello_1" shape-rendering="geometricPrecision" text-rendering="geometricPrecision" image-rendering="optimizeQuality"
	 xmlns="http://www.w3.org/2000/svg" xmlns:xlink="http://www.w3.org/1999/xlink" x="0px" y="0px" viewBox="0 0 512 512"
	 style="enable-background:new 0 0 512 512;" xml:space="preserve">
<style type="text/css">
	.st0{fill:#FFFFFF;}
	.st1{fill:#CB1619;}
	.st2{fill-rule:evenodd;clip-rule:evenodd;fill:#FFFFFF;}
</style>
<circle id="Ellisse_37_00000075854099618292727040000001564023983636132995_" class="st0" cx="256" cy="255" r="255.2"/>
<circle id="Ellisse_29_00000054952137736098796320000007282198008049087113_" class="st1" cx="256" cy="255" r="209.3"/>
<g id="Layer_x0020_1">
	<path class="st2" d="M113,149.4V351c94.2-22.6,191-22.8,286.1,0V149.4C303.7,172.3,208.3,172.3,113,149.4z M155.2,317.7l41.4-67.5
		l33.4,59.7C205.1,311,180.2,313.6,155.2,317.7L155.2,317.7z M239.2,309.6l28.3-49l26.8,49.9C275.9,309.4,257.5,309.1,239.2,309.6
		L239.2,309.6z M332.4,246.4h8.5l-12.2,21.2h8.8l-12.1,21h14.4v26.5c5.8,0.8,11.5,1.7,17.3,2.6v-29.1h14.4l-12.1-21h8.8l-12.2-21.2
		h8.5l-16-27.7L332.4,246.4z M277.4,225.6c-1.7-0.3-3.4,0.9-3.6,2.6c-0.3,1.7,0.9,3.4,2.6,3.6c5.5,0.9,9.3,5.3,11.6,10
		c0.8,1.6,2.6,2.3,4.2,1.5c0.8-0.4,1.4-1,1.6-1.8c2.2-4.7,6.2-8.9,11.5-9.8c1.7-0.3,2.9-1.9,2.6-3.6c-0.3-1.7-1.9-2.9-3.6-2.6
		c-5.6,0.9-10.1,4.2-13.4,8.7C287.6,229.9,283,226.6,277.4,225.6L277.4,225.6z M242.1,199.9c-1.7-0.3-3.4,0.9-3.6,2.6
		c-0.3,1.7,0.9,3.4,2.6,3.6c5.6,0.9,9.2,5.3,11.6,10c0.7,1.6,2.6,2.3,4.2,1.5c0.8-0.4,1.4-1,1.6-1.8c2.2-4.7,6.2-8.9,11.5-9.8
		c1.7-0.3,2.9-1.9,2.6-3.6c-0.3-1.7-1.9-2.9-3.6-2.6c-5.6,0.9-10.1,4.2-13.4,8.7C252.2,204.1,247.7,200.8,242.1,199.9L242.1,199.9z
		 M189.6,193.2c10.9,0,19.7,8.8,19.7,19.7s-8.8,19.7-19.7,19.7c-10.9,0-19.7-8.8-19.7-19.7S178.7,193.2,189.6,193.2z"/>
</g>
</svg>
