<?xml version="1.0" encoding="utf-8"?>
<!-- Generator: $$$/GeneralStr/196=Adobe Illustrator 27.6.0, SVG Export Plug-In . SVG Version: 6.00 Build 0)  -->
<svg version="1.1" id="Livello_1" xmlns="http://www.w3.org/2000/svg" xmlns:xlink="http://www.w3.org/1999/xlink" x="0px" y="0px"
	 viewBox="0 0 512 512" style="enable-background:new 0 0 512 512;" xml:space="preserve">
<style type="text/css">
	.st0{fill:#FFFFFF;}
	.st1{fill:#CB1619;}
</style>
<circle id="Ellisse_37_00000005259149667857615720000001075469569745585322_" class="st0" cx="256.5" cy="256" r="255.2"/>
<circle id="Ellisse_29_00000160907043050018169130000016268685181400370869_" class="st1" cx="256.5" cy="256" r="209.3"/>
<path id="Icon_map-museum" class="st0" d="M166.4,219.1h22c0.3,0,0.5,0.2,0.5,0.5l3.4,102.5c0,0.3-0.2,0.6-0.5,0.6H164
	c-0.3,0-0.6-0.3-0.5-0.6L166.4,219.1L166.4,219.1z M148.1,328.5h217.7c0.3,0,0.5,0.2,0.5,0.5v10.4c0,0.3,0.2,0.5,0.5,0.5h16.2
	c0.3,0,0.5,0.2,0.5,0.5v16.2c0,0.3,0.2,0.5,0.5,0.5h10.4c0.3,0,0.5,0.2,0.5,0.5v10.4c0,0.3-0.2,0.5-0.5,0.5H119.4
	c-0.3,0-0.5-0.2-0.5-0.5v-10.4c0-0.3,0.2-0.5,0.5-0.5h10.4c0.3,0,0.5-0.2,0.5-0.5v-16.2c0-0.3,0.2-0.5,0.5-0.5h16.2
	c0.3,0,0.5-0.2,0.5-0.5v-10.4C147.6,328.8,147.8,328.5,148.1,328.5z M377.5,189.1l-120.3-50.5c-0.1-0.1-0.3-0.1-0.4,0l-120.4,50.5
	c-0.2,0.1-0.3,0.3-0.3,0.5v5.9c0,0.3,0.2,0.5,0.5,0.5h240.7c0.3,0,0.5-0.2,0.5-0.5v-5.9C377.9,189.4,377.8,189.2,377.5,189.1z
	 M159.7,201.9h194.7c0.3,0,0.5,0.2,0.5,0.5v10.4c0,0.3-0.2,0.5-0.5,0.5H159.7c-0.3,0-0.5-0.2-0.5-0.5v-10.4
	C159.1,202.1,159.4,201.9,159.7,201.9z M325.1,219.1h21.5c0.3,0,0.5,0.2,0.5,0.5l3.5,102.5c0,0.3-0.2,0.6-0.5,0.6h-27.9
	c-0.3,0-0.6-0.3-0.5-0.6l3-102.5C324.5,219.4,324.8,219.1,325.1,219.1z M271.9,219.1h22c0.3,0,0.5,0.2,0.5,0.5l3.4,102.5
	c0,0.3-0.2,0.6-0.5,0.6h-27.9c-0.3,0-0.6-0.3-0.5-0.6L271.9,219.1L271.9,219.1z M219.2,219.1h22c0.3,0,0.5,0.2,0.5,0.5l3.4,102.5
	c0,0.3-0.2,0.6-0.5,0.6h-27.9c-0.3,0-0.6-0.3-0.5-0.6L219.2,219.1L219.2,219.1z"/>
</svg>
