<?xml version="1.0" encoding="utf-8"?>
<!-- Generator: $$$/GeneralStr/196=Adobe Illustrator 27.6.0, SVG Export Plug-In . SVG Version: 6.00 Build 0)  -->
<svg version="1.1" id="Capa_1" xmlns="http://www.w3.org/2000/svg" xmlns:xlink="http://www.w3.org/1999/xlink" x="0px" y="0px"
	 viewBox="0 0 512 512" style="enable-background:new 0 0 512 512;" xml:space="preserve">
<style type="text/css">
	.st0{fill:#FFFFFF;}
	.st1{fill:#CB1619;}
</style>
<circle id="Ellisse_37_00000008837433198432723760000011613163685169613699_" class="st0" cx="256" cy="256.8" r="255.2"/>
<circle id="Ellisse_29_00000013877283008982014600000013568038029033473968_" class="st1" cx="256" cy="256.8" r="209.3"/>
<path class="st0" d="M321.5,192.1l32,25v104.5h72.4v-95l-74.2-58.1L321.5,192.1z M379.9,265.6h19.5v29.2h-19.5V265.6z"/>
<path class="st0" d="M110.8,213.3l-17,13.3v95h72.4V217.1l32-25L168,168.5L130.2,198V171h-19.5L110.8,213.3L110.8,213.3z
	 M139.7,294.8h-19.5v-29.2h19.5V294.8z"/>
<path class="st0" d="M244,286.3h31.6v35.3H244L244,286.3z"/>
<path class="st0" d="M334,226.6l-74.2-58.1l-74.2,58.1v95h38.9v-54.7h70.5v54.7H334V226.6z"/>
</svg>
