<?xml version="1.0" encoding="utf-8"?>
<!-- Generator: $$$/GeneralStr/196=Adobe Illustrator 27.6.0, SVG Export Plug-In . SVG Version: 6.00 Build 0)  -->
<svg version="1.1" id="Livello_1" xmlns="http://www.w3.org/2000/svg" xmlns:xlink="http://www.w3.org/1999/xlink" x="0px" y="0px"
	 viewBox="0 0 512 512" style="enable-background:new 0 0 512 512;" xml:space="preserve">
<style type="text/css">
	.st0{fill:#FFFFFF;}
	.st1{fill:#CB1619;}
</style>
<circle id="Ellisse_37_00000005259149667857615720000001075469569745585322_" class="st0" cx="254.7" cy="256" r="255.2"/>
<circle id="Ellisse_29_00000160907043050018169130000016268685181400370869_" class="st1" cx="254.7" cy="256" r="209.3"/>
<path id="Icon_awesome-church" class="st0" d="M320.1,251.1l-50.9-30.5v-23.2H291c4,0,7.2-3.2,7.2-7.2c0,0,0,0,0,0v-14.5
	c0-4-3.2-7.2-7.2-7.2c0,0,0,0,0,0h-21.7v-21.7c0-4-3.2-7.2-7.2-7.2c0,0,0,0,0,0h-14.5c-4,0-7.2,3.2-7.2,7.2c0,0,0,0,0,0v21.7h-21.7
	c-4,0-7.2,3.2-7.2,7.2c0,0,0,0,0,0v14.5c0,4,3.2,7.2,7.2,7.2l0,0h21.7v23.2l-50.9,30.5c-4.4,2.6-7,7.3-7,12.4v107.7h43.5v-43.5
	c0-16,13-29,29-29s29,13,29,29v43.5h43.5V263.5C327.2,258.4,324.5,253.7,320.1,251.1z M109.9,318.7V364c0,4,3.2,7.2,7.2,7.2
	c0,0,0,0,0,0h50.7v-86.9l-49.2,21.1C113.3,307.6,109.9,312.9,109.9,318.7z M390.8,305.3l-49.2-21.1v86.9h50.7c4,0,7.2-3.2,7.2-7.2
	c0,0,0,0,0,0v-45.3C399.6,312.9,396.2,307.6,390.8,305.3L390.8,305.3z"/>
</svg>
