<?xml version="1.0" encoding="utf-8"?>
<!-- Generator: $$$/GeneralStr/196=Adobe Illustrator 27.6.0, SVG Export Plug-In . SVG Version: 6.00 Build 0)  -->
<svg version="1.1" id="Livello_1" xmlns="http://www.w3.org/2000/svg" xmlns:xlink="http://www.w3.org/1999/xlink" x="0px" y="0px"
	 viewBox="0 0 512 512" style="enable-background:new 0 0 512 512;" xml:space="preserve">
<style type="text/css">
	.st0{fill:#FFFFFF;}
	.st1{fill:#CB1619;}
</style>
<circle id="Ellisse_37_00000005259149667857615720000001075469569745585322_" class="st0" cx="256" cy="255" r="255.2"/>
<circle id="Ellisse_29_00000160907043050018169130000016268685181400370869_" class="st1" cx="256" cy="255" r="209.3"/>
<path class="st0" d="M357.4,370.2H145.8c-1,0-1.9-0.8-1.9-1.9s0.8-1.9,1.9-1.9h211.5c1,0,1.9,0.8,1.9,1.9S358.4,370.2,357.4,370.2z"
	/>
<path class="st0" d="M251.6,227.8c-10.6,0-19.3,8.6-19.3,19.3v26.5c0,1.5,1.3,2.8,2.8,2.8h33c1.5,0,2.8-1.3,2.8-2.8V247
	C270.9,236.4,262.2,227.8,251.6,227.8z"/>
<path class="st0" d="M281.8,307.1v55.6h-60.5v-55.6c0-5.3,4.3-9.7,9.7-9.7h41.1C277.5,297.4,281.8,301.7,281.8,307.1z"/>
<path class="st0" d="M180.8,212.6v150.1h36.9v-55.6c0-7.4,6-13.4,13.4-13.4h41.1c7.4,0,13.4,6,13.4,13.4v55.6h36.9V212.6H180.8z
	 M274.6,273.6c0,3.6-2.9,6.5-6.5,6.5h-33c-3.6,0-6.5-2.9-6.5-6.5V247c0-12.7,10.3-23,23-23c12.7,0,23,10.3,23,23V273.6z"/>
<path class="st0" d="M344.5,145.7v55.1c0,4.4-3.6,8-8,8h-170c-4.4,0-8-3.6-8-8v-55.1c0-4.4,3.6-8,8-8h18.9c4.4,0,8,3.6,8,8v24.4
	c0,2.3,1.9,4.2,4.2,4.2h7c2.3,0,4.2-1.9,4.2-4.2v-24.4c0-4.4,3.6-8,8-8h18.9c4.4,0,8,3.6,8,8v24.4c0,2.3,1.9,4.2,4.2,4.2h7
	c2.3,0,4.2-1.9,4.2-4.2c0,0,0,0,0,0v-24.4c0-4.4,3.6-8,8-8h18.9c4.4,0,8,3.6,8,8v24.4c0,2.3,1.9,4.2,4.2,4.2h7
	c2.3,0,4.2-1.9,4.2-4.2v-24.4c0-4.4,3.6-8,8-8h18.9C341,137.8,344.5,141.3,344.5,145.7z"/>
</svg>
