<?xml version="1.0" encoding="utf-8"?>
<!-- Generator: $$$/GeneralStr/196=Adobe Illustrator 27.6.0, SVG Export Plug-In . SVG Version: 6.00 Build 0)  -->
<svg version="1.1" id="Layer_2" xmlns="http://www.w3.org/2000/svg" xmlns:xlink="http://www.w3.org/1999/xlink" x="0px" y="0px"
	 viewBox="0 0 512 512" style="enable-background:new 0 0 512 512;" xml:space="preserve">
<style type="text/css">
	.st0{fill:#FFFFFF;}
	.st1{fill:#CB1619;}
</style>
<circle id="Ellisse_37_00000075854099618292727040000001564023983636132995_" class="st0" cx="255.5" cy="256" r="255.2"/>
<circle id="Ellisse_29_00000054952137736098796320000007282198008049087113_" class="st1" cx="255.5" cy="256" r="209.3"/>
<g>
	<path class="st0" d="M311.2,366.5v-69.4H260v69.4H311.2z M289.3,359.2c0,2-1.6,3.7-3.7,3.7c-2,0-3.7-1.6-3.7-3.7v-14.6
		c0-2,1.6-3.7,3.7-3.7c2,0,3.7,1.6,3.7,3.7V359.2z M289.3,326.4c0,2-1.6,3.7-3.7,3.7c-2,0-3.7-1.6-3.7-3.7v-14.6
		c0-2,1.6-3.7,3.7-3.7c2,0,3.7,1.6,3.7,3.7V326.4z"/>
	<path class="st0" d="M143.2,289.8h51.1v-51.1h-51.1V289.8z M168.7,257c0-2,1.6-3.7,3.7-3.7c2,0,3.7,1.6,3.7,3.7v14.6
		c0,2-1.6,3.7-3.7,3.7c-2,0-3.7-1.6-3.7-3.7V257z"/>
	<path class="st0" d="M369.6,238.7h-51.1v51.1h51.1V238.7z M344,271.6c0,2-1.6,3.7-3.7,3.7s-3.7-1.6-3.7-3.7V257
		c0-2,1.6-3.7,3.7-3.7s3.7,1.6,3.7,3.7V271.6z"/>
	<path class="st0" d="M252.7,366.5v-69.4h-51.1v69.4H252.7z M230.8,359.2c0,2-1.6,3.7-3.7,3.7c-2,0-3.7-1.6-3.7-3.7v-14.6
		c0-2,1.6-3.7,3.7-3.7c2,0,3.7,1.6,3.7,3.7V359.2z M230.8,326.4c0,2-1.6,3.7-3.7,3.7c-2,0-3.7-1.6-3.7-3.7v-14.6
		c0-2,1.6-3.7,3.7-3.7c2,0,3.7,1.6,3.7,3.7V326.4z"/>
	<path class="st0" d="M194.3,366.5v-69.4h-51.1v69.4H194.3z M176,359.2c0,2-1.6,3.7-3.7,3.7c-2,0-3.7-1.6-3.7-3.7v-14.6
		c0-2,1.6-3.7,3.7-3.7c2,0,3.7,1.6,3.7,3.7V359.2z M176,326.4c0,2-1.6,3.7-3.7,3.7c-2,0-3.7-1.6-3.7-3.7v-14.6c0-2,1.6-3.7,3.7-3.7
		c2,0,3.7,1.6,3.7,3.7V326.4z"/>
	<path class="st0" d="M369.6,366.5v-69.4h-51.1v69.4H369.6z M344,359.2c0,2-1.6,3.7-3.7,3.7s-3.7-1.6-3.7-3.7v-14.6
		c0-2,1.6-3.7,3.7-3.7s3.7,1.6,3.7,3.7V359.2z M344,326.4c0,2-1.6,3.7-3.7,3.7s-3.7-1.6-3.7-3.7v-14.6c0-2,1.6-3.7,3.7-3.7
		s3.7,1.6,3.7,3.7V326.4z"/>
	<path class="st0" d="M260,289.8h51.1v-51.1H260V289.8z M285.6,253.3c2,0,3.7,1.6,3.7,3.7v14.6c0,2-1.6,3.7-3.7,3.7
		c-2,0-3.7-1.6-3.7-3.7V257C282,254.9,283.6,253.3,285.6,253.3z"/>
	<path class="st0" d="M369.6,169.3c0-2-1.6-3.7-3.7-3.7h-11v-29.2c0-2-1.6-3.7-3.7-3.7s-3.7,1.6-3.7,3.7v29.2h-11
		c-2,0-3.7,1.6-3.7,3.7v40.2h36.5V169.3z"/>
	<path class="st0" d="M252.7,191.2c0-2,1.6-3.7,3.7-3.7c2,0,3.7,1.6,3.7,3.7v18.3h29.2v-14.6c0-15.8-21.8-27.9-29.2-31.5v-26.9
		c0-2-1.6-3.7-3.7-3.7c-2,0-3.7,1.6-3.7,3.7v26.9c-7.4,3.7-29.2,15.7-29.2,31.5v14.6h29.2V191.2z"/>
	<path class="st0" d="M143.2,231.4h73.1c2,0,3.7,1.6,3.7,3.7c0,2-1.6,3.7-3.7,3.7h-14.6v51.1h51.1v-51.1h-21.9c-2,0-3.7-1.6-3.7-3.7
		c0-2,1.6-3.7,3.7-3.7h138.8v-14.6H143.2V231.4z M230.8,257v14.6c0,2-1.6,3.7-3.7,3.7c-2,0-3.7-1.6-3.7-3.7V257c0-2,1.6-3.7,3.7-3.7
		C229.2,253.3,230.8,254.9,230.8,257z"/>
	<path class="st0" d="M179.7,169.3c0-2-1.6-3.7-3.7-3.7h-11v-29.2c0-2-1.6-3.7-3.7-3.7c-2,0-3.7,1.6-3.7,3.7v29.2h-11
		c-2,0-3.7,1.6-3.7,3.7v40.2h36.5V169.3z"/>
</g>
</svg>
