<?xml version="1.0" encoding="utf-8"?>
<!-- Generator: $$$/GeneralStr/196=Adobe Illustrator 27.6.0, SVG Export Plug-In . SVG Version: 6.00 Build 0)  -->
<svg version="1.1" id="Capa_1" xmlns="http://www.w3.org/2000/svg" xmlns:xlink="http://www.w3.org/1999/xlink" x="0px" y="0px"
	 viewBox="0 0 512 512" style="enable-background:new 0 0 512 512;" xml:space="preserve">
<style type="text/css">
	.st0{fill:#FFFFFF;}
	.st1{fill:#CB1619;}
</style>
<circle id="Ellisse_37_00000005259149667857615720000001075469569745585322_" class="st0" cx="256" cy="256" r="255.2"/>
<circle id="Ellisse_29_00000160907043050018169130000016268685181400370869_" class="st1" cx="256" cy="256" r="209.3"/>
<g transform="translate(0 -1)">
	<g>
		<g>
			<path class="st0" d="M372.8,337.2c2.2,0,4-1.8,4-4s-1.8-4-4-4h-4v-12.1h4c2.2,0,4-1.8,4-4s-1.8-4-4-4h-4c0-2.2-1.8-4-4-4
				s-4,1.8-4,4h-64.5c0-2.2-1.8-4-4-4c-2.2,0-4,1.8-4,4h-4c-2.2,0-4,1.8-4,4s1.8,4,4,4h4v12.1h-4c-2.2,0-4,1.8-4,4s1.8,4,4,4h4v4h-4
				c-2.2,0-4,1.8-4,4s1.8,4,4,4h4v12.1h-72.5v-34.6c-3.2-2.7-5.9-6-8.1-9.7c-2.1,3.7-4.8,6.9-8.1,9.7v34.6h-60.4c-2.2,0-4,1.8-4,4
				c0,2.2,1.8,4,4,4h233.7c2.2,0,4-1.8,4-4c0-2.2-1.8-4-4-4h-4v-12.1h4c2.2,0,4-1.8,4-4s-1.8-4-4-4h-4v-4H372.8z M360.7,361.4h-64.5
				v-12.1h64.5L360.7,361.4L360.7,361.4z M360.7,341.2h-64.5v-4h64.5L360.7,341.2L360.7,341.2z M360.7,329.1h-64.5v-12.1h64.5
				L360.7,329.1L360.7,329.1z"/>
			<path class="st0" d="M155.3,184.1h22.1c0-0.5-0.1-0.9-0.1-1.4c-0.1-13.7,8.9-25.9,22-29.9c-1.6-10.4-10.9-17.8-21.4-17
				c-10.5,0.8-18.6,9.6-18.5,20.1c0,2.2-1.8,4-4,4c-6.7,0-12.1,5.4-12.1,12.1C143.2,178.7,148.6,184.1,155.3,184.1z"/>
			<path class="st0" d="M308.4,220.4h48.3c6.7,0,12.1-5.4,12.1-12.1s-5.4-12.1-12.1-12.1c-2.2,0-4-1.8-4-4c0-11.1-9-20.1-20.1-20.1
				s-20.1,9-20.1,20.1c0,2.2-1.8,4-4,4c-6.7,0-12.1,5.4-12.1,12.1C296.3,215,301.7,220.4,308.4,220.4z"/>
			<path class="st0" d="M176,325.1c11,0,21.2-5.6,27.2-14.9l-26.6-26.6c-1.6-1.6-1.6-4.1,0-5.7c1.6-1.6,4.1-1.6,5.7,0l21.3,21.4v-41
				l-19-18.9c-1-1-1.4-2.5-1.1-3.9c0.4-1.4,1.5-2.5,2.9-2.9c1.4-0.4,2.9,0,3.9,1.1l13.3,13.3v-18.5c0-2.2,1.8-4,4-4c2.2,0,4,1.8,4,4
				v18.5l13.3-13.3c1-1,2.5-1.4,3.9-1.1c1.4,0.4,2.5,1.5,2.9,2.9c0.4,1.4,0,2.9-1.1,3.9l-19,18.9v41l21.3-21.4
				c1.6-1.6,4.1-1.6,5.7,0c1.6,1.6,1.6,4.1,0,5.7l-26.6,26.6c5.9,9.2,16.2,14.8,27.2,14.9c18.4-0.3,33.1-15.5,32.8-33.9
				c0-0.4,0-0.8,0-1.2c-0.3-11.1-6-21.3-15.3-27.4c-2.3-1.5-4.9-2.7-7.5-3.6c-1.3-0.5-2.3-1.6-2.7-2.9c-0.3-1.4,0.1-2.8,1.1-3.8
				c5.5-5.4,8.6-12.7,8.6-20.4v-0.2c0.2-13.6-9.4-25.4-22.7-28c-1.6-0.3-3.2-0.5-4.9-0.5c-1.5,0-3-0.8-3.7-2.2
				c-0.7-1.3-0.6-3,0.3-4.2c2.7-3.6,4.2-7.8,4.6-12.2c0.1-0.5,0.1-1.1,0.1-1.7c0.2-12.5-9.8-22.8-22.3-23.1
				c-12.5,0.2-22.5,10.6-22.3,23.1c0,0.6,0,1.1,0.1,1.7c0.3,4.4,1.9,8.7,4.6,12.2c0.9,1.2,1,2.9,0.3,4.2c-0.8,1.5-2.4,2.3-4,2.2
				c-1.5,0-3.1,0.1-4.6,0.4c-13.3,2.7-22.9,14.5-22.7,28.1v0.2c0,7.7,3.1,15,8.6,20.4c1,1,1.4,2.4,1.1,3.8c-0.3,1.4-1.3,2.5-2.7,2.9
				c-2.7,0.9-5.2,2.1-7.5,3.6c-9.3,6.1-15,16.3-15.3,27.4c0,0.4,0,0.8,0,1.2C142.9,309.6,157.6,324.8,176,325.1z"/>
		</g>
	</g>
</g>
</svg>
