<?xml version="1.0" encoding="utf-8"?>
<!-- Generator: $$$/GeneralStr/196=Adobe Illustrator 27.6.0, SVG Export Plug-In . SVG Version: 6.00 Build 0)  -->
<svg version="1.1" id="profilo_esercente" xmlns="http://www.w3.org/2000/svg" xmlns:xlink="http://www.w3.org/1999/xlink" x="0px"
	 y="0px" viewBox="0 0 512 512" style="enable-background:new 0 0 512 512;" xml:space="preserve">
<style type="text/css">
	.st0{fill:#FFFFFF;}
	.st1{fill:#CB1619;}
</style>
<circle id="Ellisse_37_00000005259149667857615720000001075469569745585322_" class="st0" cx="256" cy="255.9" r="255.2"/>
<circle id="Ellisse_29_00000160907043050018169130000016268685181400370869_" class="st1" cx="256" cy="255.9" r="209.3"/>
<path id="Icon_metro-shop" class="st0" d="M196.6,215.9l11.2-74.2h-58.1l-24.3,63.6c-0.8,2.3-1.1,4.7-1.1,7.1
	c0,15.6,16.3,28.3,36.3,28.3C179,240.6,194.4,229.8,196.6,215.9L196.6,215.9z M251.4,240.6c20.1,0,36.3-12.7,36.3-28.3
	c0-0.6,0-1.2-0.1-1.7l-7.2-69h-58.1l-7.2,68.9c0,0.6-0.1,1.2-0.1,1.8C215.1,228,231.4,240.6,251.4,240.6L251.4,240.6z M322.1,255.4
	v55.9H180.8v-55.8c-6.5,2.3-13.3,3.5-20.2,3.5c-2.7,0-5.4-0.3-8.1-0.7v89.7c0,10.9,8.9,19.7,19.8,19.8h158.3
	c10.9,0,19.7-8.9,19.8-19.8v-89.7c-2.7,0.4-5.4,0.6-8.1,0.7C335.4,259,328.6,257.8,322.1,255.4L322.1,255.4z M377.5,205.3
	l-24.3-63.6H295l11.2,74.1c2.2,14,17.5,24.8,36.1,24.8c20.1,0,36.3-12.7,36.3-28.3C378.6,210,378.2,207.6,377.5,205.3L377.5,205.3z"
	/>
</svg>
