<?xml version="1.0" encoding="utf-8"?>
<!-- Generator: $$$/GeneralStr/196=Adobe Illustrator 27.6.0, SVG Export Plug-In . SVG Version: 6.00 Build 0)  -->
<svg version="1.1" id="Layer_1" xmlns="http://www.w3.org/2000/svg" xmlns:xlink="http://www.w3.org/1999/xlink" x="0px" y="0px"
	 viewBox="0 0 512 512" style="enable-background:new 0 0 512 512;" xml:space="preserve">
<style type="text/css">
	.st0{fill:#FFFFFF;}
	.st1{fill:#CB1619;}
</style>
<circle id="Ellisse_37_00000075854099618292727040000001564023983636132995_" class="st0" cx="256" cy="256.5" r="255.2"/>
<circle class="st1" cx="256" cy="257.2" r="30"/>
<path class="st1" d="M256,47.3c-115.9,0-209.8,93.9-209.8,209.8S140.1,467,256,467s209.8-93.9,209.8-209.8S371.9,47.3,256,47.3z
	 M344.7,188.1l-45,104.9c-1.5,3.5-4.3,6.4-7.9,7.9l-104.9,45c-7.6,3.3-16.4-0.3-19.7-7.9c-1.6-3.8-1.6-8,0-11.8l45-104.9
	c1.5-3.5,4.3-6.4,7.9-7.9l104.9-45c7.6-3.3,16.4,0.3,19.7,7.9C346.3,180.1,346.3,184.4,344.7,188.1z"/>
</svg>
