<?xml version="1.0" encoding="utf-8"?>
<!-- Generator: $$$/GeneralStr/196=Adobe Illustrator 27.6.0, SVG Export Plug-In . SVG Version: 6.00 Build 0)  -->
<svg version="1.1" id="Capa_1" xmlns="http://www.w3.org/2000/svg" xmlns:xlink="http://www.w3.org/1999/xlink" x="0px" y="0px"
	 viewBox="0 0 512 512" style="enable-background:new 0 0 512 512;" xml:space="preserve">
<style type="text/css">
	.st0{fill:#FFFFFF;}
	.st1{fill:#CB1619;}
</style>
<circle id="Ellisse_37_00000005259149667857615720000001075469569745585322_" class="st0" cx="256.6" cy="255.5" r="255.2"/>
<circle id="Ellisse_29_00000160907043050018169130000016268685181400370869_" class="st1" cx="256.6" cy="255.5" r="209.3"/>
<g>
	<g>
		<g>
			<path class="st0" d="M220.9,261.1l15.9-8.3c0.3-0.2,0.3-0.6,0-0.8l-15.9-8.3l9.6-15.2c0.2-0.3,0-0.7-0.4-0.7l-17.9,0.7l0.7-17.9
				c0-0.4-0.4-0.6-0.7-0.4l-15.2,9.6l-8.3-15.9c-0.2-0.3-0.6-0.3-0.8,0l-8.3,15.9l-15.2-9.6c-0.3-0.2-0.7,0-0.7,0.4l0.7,17.9
				l-17.9-0.7c-0.4,0-0.6,0.4-0.4,0.7l9.6,15.2l-15.9,8.3c-0.3,0.2-0.3,0.6,0,0.8l15.9,8.3l-9.6,15.2c-0.2,0.3,0,0.7,0.4,0.7
				l17.9-0.7l-0.7,17.9c0,0.4,0.4,0.6,0.7,0.4l15.2-9.6l8.3,15.9c0.2,0.3,0.6,0.3,0.8,0L197,285l15.2,9.6c0.3,0.2,0.7,0,0.7-0.4
				l-0.7-17.9L230,277c0.4,0,0.6-0.4,0.4-0.7L220.9,261.1z M189,277c-14.2,0.5-25.9-11.2-25.4-25.4c0.4-12.9,10.9-23.4,23.8-23.8
				c14.2-0.5,25.9,11.2,25.4,25.4C212.4,266.1,201.9,276.6,189,277z"/>
		</g>
	</g>
	<g>
		<g>
			<path class="st0" d="M345.2,349.8c-4.5,3.2-7.8,5.5-15.2,5.5c-7.4,0-10.7-2.3-15.2-5.5c-5-3.5-11.3-7.9-23-7.9
				c-11.7,0-17.9,4.4-23,7.9c-4.5,3.2-7.8,5.5-15.2,5.5s-10.7-2.3-15.2-5.5c-5-3.5-11.3-7.9-23-7.9c-11.7,0-17.9,4.4-23,7.9
				c-4.5,3.2-7.8,5.5-15.2,5.5s-10.7-2.3-15.2-5.5c-5-3.5-11.3-7.9-23-7.9v13.4c7.4,0,10.7,2.3,15.2,5.5c5,3.5,11.3,7.9,23,7.9
				c11.7,0,17.9-4.4,23-7.9c4.5-3.2,7.8-5.5,15.2-5.5s10.7,2.3,15.2,5.5c5,3.5,11.3,7.9,23,7.9s17.9-4.4,23-7.9
				c4.5-3.2,7.8-5.5,15.2-5.5c7.4,0,10.7,2.3,15.2,5.5c5,3.5,11.3,7.9,23,7.9c11.7,0,17.9-4.4,23-7.9c4.5-3.2,7.8-5.5,15.2-5.5
				v-13.4C356.5,341.9,350.3,346.3,345.2,349.8z"/>
		</g>
	</g>
	<g>
		<g>
			<path class="st0" d="M361.3,188.7c-7-15-18.5-26.9-32.9-34.3c-1.5-0.8-2.1-2.5-1.6-4.1l1-2.8c0.6-1.7-0.3-3.6-2-4.3l-6.4-2.3
				c-1.7-0.6-3.6,0.3-4.3,2l-1,2.8c-0.6,1.6-2.2,2.5-3.9,2.1c-35.6-7.9-72.6,11.7-85.4,46.9l-1.4,3.7c-0.7,1.9,0.5,4,2.5,4.4
				l3.9,0.7c12.6,2.3,24.6,6.7,35.8,13l0,0c1,0.6,2.2,0.9,3.4,0.9l0,0c0.2,0,0.5,0,0.7,0c4.6,0,9.2,0.5,13.7,1.4
				c2,0.4,3.2,2.5,2.5,4.4l-29.2,80.2c-0.5,1.3-1.7,2.2-3.2,2.2c0,0,0,0,0,0c-20.8,0-41.1,3.4-60.6,10.1c-10.3,3.5-20.2,8-29.6,13.2
				c-2.3,1.3-2.3,4.5,0,5.8c2.5,1.4,4.6,2.9,6.3,4.1c3.9,2.8,4.3,3.1,7.5,3.1c3.2,0,3.6-0.3,7.5-3c5.5-3.9,14.8-10.4,30.7-10.4
				s25.2,6.5,30.7,10.4c3.9,2.8,4.3,3.1,7.5,3.1c3.2,0,3.6-0.3,7.5-3c5.5-3.9,14.8-10.4,30.7-10.4c15.9,0,25.2,6.5,30.7,10.4
				c3.9,2.8,4.3,3,7.5,3s3.6-0.3,7.5-3c1.7-1.2,3.8-2.7,6.3-4.1c2.3-1.3,2.2-4.5,0-5.8c-9.5-5.3-19.3-9.7-29.6-13.2
				c-12.9-4.5-26.3-7.5-39.9-9c-2.2-0.2-3.5-2.4-2.8-4.5l27.1-74.5c0.7-1.9,2.9-2.8,4.7-1.8c4.2,2.3,8.2,5,11.9,8.2l0.7,0.6
				c0.4,0.4,1,0.6,1.6,0.7l0.9,0.2c12.6,2.3,24.6,6.7,35.8,13l3.5,2c1.8,1,4.1,0.2,4.8-1.8l1.4-3.7
				C370.5,226.7,369.6,206.6,361.3,188.7z"/>
		</g>
	</g>
</g>
</svg>
