<?xml version="1.0" encoding="utf-8"?>
<!-- Generator: $$$/GeneralStr/196=Adobe Illustrator 27.6.0, SVG Export Plug-In . SVG Version: 6.00 Build 0)  -->
<svg version="1.1" id="Layer_1" xmlns="http://www.w3.org/2000/svg" xmlns:xlink="http://www.w3.org/1999/xlink" x="0px" y="0px"
	 viewBox="0 0 512 512" style="enable-background:new 0 0 512 512;" xml:space="preserve">
<style type="text/css">
	.st0{fill:#FFFFFF;}
	.st1{fill:#CB1619;}
	.st2{fill-rule:evenodd;clip-rule:evenodd;fill:#FFFFFF;}
</style>
<circle id="Ellisse_37_00000005259149667857615720000001075469569745585322_" class="st0" cx="256" cy="255" r="255.2"/>
<circle id="Ellisse_29_00000160907043050018169130000016268685181400370869_" class="st1" cx="256" cy="255" r="209.3"/>
<path class="st2" d="M288.6,311.9c3,0.5,6,0.7,9.1,0.7c40.7,0,73.7-40.4,73.7-90.2c0-33.7,0-50.6,0-81.5c0-1.9-0.9-3.5-2.5-4.5
	c-1.6-1-3.4-1.1-5.1-0.3c-33.4,15.5-95.2,17.4-132.1,0c-1.7-0.8-3.6-0.7-5.2,0.3s-2.5,2.6-2.5,4.5l0,45.2c7.9-4,15.3-8.6,21.5-13.8
	c3.4-2.8,7.9-3.7,12.1-2.4c4.2,1.3,7.4,4.6,8.5,8.9l3.6,13.5c1.2-0.3,2.3-0.7,3.3-1.3c1.8-1.1,3.3-2.7,4.3-4.5
	c1-1.8,3.2-2.5,5.1-1.5s2.5,3.2,1.5,5.1c-1.6,3.1-4.1,5.6-7.1,7.4c-1.6,1-3.4,1.7-5.2,2.2l11.4,42.6c4.6-2.3,9.5-3.6,14.5-3.6
	c14.1,0,26.8,9.8,35.9,25.5c-11.3-2.1-23.4-3.2-35.9-3.2c-3.2,0-6.4,0.1-9.5,0.2C292.1,277.7,292.4,295.3,288.6,311.9L288.6,311.9z
	 M137.7,297.6c0,0-15.2-56.6-21.1-78.7c-0.5-1.8,0-3.6,1.2-5c1.3-1.4,3-2,4.9-1.6c40.1,7.3,99.3-10.6,127.6-34.2
	c1.4-1.2,3.3-1.6,5-1c1.8,0.6,3.1,1.9,3.6,3.7c8,29.8,12.4,46.1,21.1,78.7c12.9,48.1-8.5,95.7-47.8,106.2
	C193,376.2,150.6,345.8,137.7,297.6L137.7,297.6z M163.2,265.8c0.5-2.1,1.5-4,3-5.5c1.4-1.5,3.2-2.6,5.4-3.2c2.1-0.6,4.3-0.5,6.2,0
	c2,0.6,3.9,1.7,5.4,3.3c1.4,1.5,3.8,1.6,5.3,0.2c1.5-1.4,1.6-3.8,0.2-5.3c-2.4-2.5-5.4-4.4-8.7-5.3c-3.2-0.9-6.7-1-10.2-0.1
	c-3.5,0.9-6.5,2.8-8.8,5.2c-2.4,2.5-4.1,5.6-4.9,9c-0.5,2,0.8,4,2.8,4.5C160.7,269.1,162.7,267.8,163.2,265.8L163.2,265.8z
	 M222.2,250c-0.5,2-2.5,3.3-4.5,2.8c-2-0.5-3.3-2.5-2.8-4.5c0.8-3.4,2.5-6.5,4.9-9c2.3-2.4,5.3-4.2,8.8-5.2c3.5-0.9,7-0.8,10.2,0.1
	c3.3,0.9,6.4,2.8,8.7,5.3c1.4,1.5,1.3,3.9-0.2,5.3c-1.5,1.4-3.9,1.3-5.3-0.2c-1.5-1.5-3.3-2.7-5.4-3.3c-2-0.6-4.1-0.6-6.2,0
	c-2.1,0.6-4,1.7-5.4,3.2C223.7,246,222.7,247.9,222.2,250L222.2,250z M249.5,291.6c-4.7,17.5-14.4,30.3-28,33.9
	c-13.6,3.6-28.4-2.5-41.2-15.3c11.5-0.9,23.4-2.9,35.5-6.2C227.8,300.8,239.2,296.6,249.5,291.6L249.5,291.6z M311.3,190
	c-1-1.8-0.3-4.1,1.5-5.1c1.8-1,4.1-0.3,5.1,1.5c1,1.9,2.5,3.4,4.3,4.5c1.7,1,3.8,1.6,6,1.6s4.3-0.6,6-1.6c1.8-1.1,3.3-2.7,4.3-4.5
	c1-1.8,3.2-2.5,5.1-1.5c1.8,1,2.5,3.2,1.5,5.1c-1.6,3.1-4.1,5.6-7.1,7.4c-2.9,1.7-6.3,2.7-9.8,2.7c-3.6,0-7-1-9.8-2.7
	C315.4,195.7,313,193.1,311.3,190z"/>
</svg>
