<?xml version="1.0" encoding="utf-8"?>
<!-- Generator: $$$/GeneralStr/196=Adobe Illustrator 27.6.0, SVG Export Plug-In . SVG Version: 6.00 Build 0)  -->
<svg version="1.1" id="Capa_1" xmlns="http://www.w3.org/2000/svg" xmlns:xlink="http://www.w3.org/1999/xlink" x="0px" y="0px"
	 viewBox="0 0 512 512" style="enable-background:new 0 0 512 512;" xml:space="preserve">
<style type="text/css">
	.st0{fill:#FFFFFF;}
	.st1{fill:#CB1619;}
</style>
<circle id="Ellisse_37_00000075854099618292727040000001564023983636132995_" class="st0" cx="256.5" cy="256" r="255.2"/>
<circle id="Ellisse_29_00000054952137736098796320000007282198008049087113_" class="st1" cx="256.5" cy="256" r="209.3"/>
<g id="XMLID_57_">
	<path id="XMLID_58_" class="st0" d="M370,196.4c-2.4-4-7.5-5.3-11.5-2.9l-28.3,16.8l-3.5-10.1c2.6-8.3-1.3-17.4-9.4-20.9
		c-3.5-1.6-10-4.7-14-4.8l-37.9,0.8c-4.1,0.1-7.6,3.2-8.2,7.3l-4.2,31.6l13.7-8.1c1.5-0.9,3.1-1.4,4.7-1.8l1.7-12.4l12-0.3
		l-5.6,12.8c3.8,1.1,7.2,3.5,9.3,7.2c4.3,7.3,2.2,16.6-4.8,21.4c-1.8,1.3-16.4,9.9-18.3,11l-6.2,30.5l-28.2-8.4
		c-3-0.9-5.9-0.3-8.4,1.2l16.8,15.2c2.8,2.6,4.6,5.9,5.4,9.5l19.3,5.8c5.9,1.7,12-1.9,13.2-7.9l5.7-27.5l21,18.1l-10.2,54.4
		c-1.1,5.7,2.7,11.1,8.3,12.2c5.7,1.1,11.1-2.7,12.2-8.3l11.3-60.2c0.7-3.6-0.6-7.2-3.3-9.7l-18.4-16.6l12.9-29.3l0.9,2.5
		c1.8,5.1,7.8,7.1,12.2,4.5l37.1-22.1C371,205.5,372.3,200.4,370,196.4z"/>
	<path id="XMLID_59_" class="st0" d="M216,271.6l3.2-7.4l5.6-12.8l4-9.2l0.9,2.5c1.8,5,7.7,7.2,12.2,4.5l37.1-22.1
		c4-2.4,5.3-7.5,2.9-11.5c-2.4-4-7.5-5.3-11.5-2.9l-28.3,16.8l-3.5-10.1c2.6-8.3-1.3-17.4-9.4-20.9c-0.6-0.3-6.7-2.9-6.7-3
		c-1.7-0.7-5.5-1.9-8.2-1.8l-36.9,0.8c-4.2,0.1-7.6,3.2-8.2,7.3l-5,37.7c-0.6,4.6,2.6,8.8,7.2,9.5c4.6,0.6,8.9-2.6,9.5-7.2l4.1-30.6
		l12-0.3l-17.4,39.6c-1.6,3.6-2,7.4-1.7,11.1l-6.6,32.2l-28.2-8.4c-5.5-1.6-11.3,1.5-13,7c-1.6,5.5,1.5,11.3,7,13l39.1,11.6
		c5.8,1.7,12-1.9,13.2-7.9c4.8-23.3,3.6-17.5,5.7-27.5l21,18.1l-10.2,54.4c-1.1,5.7,2.7,11.1,8.3,12.2c5.7,1.1,11.1-2.7,12.2-8.3
		l11.3-60.1c0.7-3.6-0.6-7.2-3.3-9.7L216,271.6z"/>
	<path id="XMLID_60_" class="st0" d="M228,192.3c10.1,4.4,21.9-0.1,26.4-10.3c4.4-10.1-0.2-21.9-10.3-26.4
		c-10.1-4.4-21.9,0.2-26.4,10.3C213.2,176.3,218.3,188.1,228,192.3z"/>
	<path id="XMLID_61_" class="st0" d="M316,173.1c10.1,4.4,21.9-0.1,26.4-10.3c4.4-10.1-0.2-21.9-10.3-26.4
		c-10.1-4.4-21.9,0.2-26.4,10.3C301.3,156.8,305.9,168.6,316,173.1z"/>
</g>
</svg>
