<?xml version="1.0" encoding="utf-8"?>
<!-- Generator: $$$/GeneralStr/196=Adobe Illustrator 27.6.0, SVG Export Plug-In . SVG Version: 6.00 Build 0)  -->
<svg version="1.1" id="Capa_1" xmlns="http://www.w3.org/2000/svg" xmlns:xlink="http://www.w3.org/1999/xlink" x="0px" y="0px"
	 viewBox="0 0 512 512" style="enable-background:new 0 0 512 512;" xml:space="preserve">
<style type="text/css">
	.st0{fill:#FFFFFF;}
	.st1{fill:#CB1619;}
</style>
<circle id="Ellisse_37_00000005259149667857615720000001075469569745585322_" class="st0" cx="256" cy="255.5" r="255.2"/>
<circle id="Ellisse_29_00000160907043050018169130000016268685181400370869_" class="st1" cx="256" cy="255.5" r="209.3"/>
<g id="XMLID_481_">
	<path id="XMLID_485_" class="st0" d="M363.8,292.9c-2.1-2.1-5.3-2.5-8-1.2c-39.2,20.6-88.8,14.4-121.8-18.6
		c-33-33-39.2-82.6-18.6-121.8c1.4-2.6,0.9-5.8-1.2-8c-2.1-2.1-5.3-2.7-7.9-1.4c-11.2,5.5-21.6,13-31,22.3
		c-46.2,46.2-46.2,121.2,0,167.5c46.3,46.2,121.2,46.2,167.5,0c9.3-9.3,16.7-19.8,22.3-30.9C366.5,298.2,366,295,363.8,292.9z"/>
	<path id="XMLID_484_" class="st0" d="M282,267.2c-0.2,0.4,0,0.9,0.3,1.1c0.3,0.3,0.8,0.3,1.2,0l15.3-10.8l17.3,7.1
		c0.4,0.2,0.9,0,1.1-0.3c0.3-0.3,0.3-0.8,0-1.2l-10.8-15.3l7.1-17.3c0.2-0.4,0-0.9-0.3-1.1c-0.3-0.3-0.8-0.3-1.2,0l-15.3,10.8
		l-17.3-7.1c-0.4-0.2-0.9,0-1.1,0.3c-0.3,0.3-0.3,0.8,0,1.2l10.8,15.3L282,267.2z"/>
	<path id="XMLID_483_" class="st0" d="M241.9,185.1l12.6,0.9l5.9,11.1c0.2,0.4,0.6,0.6,1.1,0.5c0.4-0.1,0.7-0.5,0.8-0.9l0.9-12.6
		l11.1-6c0.4-0.2,0.6-0.6,0.5-1.1c-0.1-0.4-0.5-0.7-0.9-0.8l-12.6-0.9l-5.9-11.1c-0.2-0.4-0.6-0.6-1.1-0.5c-0.4,0.1-0.7,0.5-0.8,0.9
		l-0.9,12.6l-11.1,6c-0.4,0.2-0.6,0.6-0.5,1.1C241.1,184.7,241.4,185,241.9,185.1z"/>
	<path id="XMLID_482_" class="st0" d="M321.6,172.5l-0.4,7c0,0.4,0.2,0.8,0.7,1c0.4,0.1,0.9,0,1.1-0.4l4.1-5.7l7,0.4
		c0.4,0,0.8-0.2,1-0.7c0.1-0.4,0-0.9-0.4-1.1l-5.7-4.1l0.4-7c0-0.4-0.2-0.8-0.7-1c-0.4-0.1-0.9,0-1.1,0.4l-4.1,5.7l-7-0.4
		c-0.4,0-0.8,0.2-1,0.7c-0.2,0.4,0,0.9,0.4,1.1L321.6,172.5z"/>
</g>
</svg>
