<?xml version="1.0" encoding="utf-8"?>
<!-- Generator: $$$/GeneralStr/196=Adobe Illustrator 27.6.0, SVG Export Plug-In . SVG Version: 6.00 Build 0)  -->
<svg version="1.1" id="Capa_1" xmlns="http://www.w3.org/2000/svg" xmlns:xlink="http://www.w3.org/1999/xlink" x="0px" y="0px"
	 viewBox="0 0 512 512" style="enable-background:new 0 0 512 512;" xml:space="preserve">
<style type="text/css">
	.st0{fill:#FFFFFF;}
	.st1{fill:#CB1619;}
</style>
<circle id="Ellisse_37_00000005259149667857615720000001075469569745585322_" class="st0" cx="256" cy="255.4" r="255.2"/>
<circle id="Ellisse_29_00000160907043050018169130000016268685181400370869_" class="st1" cx="256" cy="255.4" r="209.3"/>
<g>
	<circle class="st0" cx="311.1" cy="171.4" r="24.8"/>
	<path class="st0" d="M374.2,271.2l-38.1-65.4c-1.8-3.1-5.5-5.3-8.3-5.3c-0.7,0-31.8,0-32.4,0c-2.8,0-6.5,2.2-8.3,5.3l-28.7,49.3
		l-31.9-54.7c-2-3.5-5.7-5.4-9.5-5.4c-0.1,0-0.1,0-0.2,0h-30.7c-0.1,0-0.1,0-0.2,0c-3.8,0-7.4,1.9-9.5,5.4l-38.1,65.4
		c-3,5.2-1.3,11.9,3.9,14.9c1.7,1,3.6,1.5,5.5,1.5c3.8,0,7.4-1.9,9.4-5.4l16.8-28.9v12.4l-7.5,54.2c-0.6,4.6,2.9,8.6,7.5,8.6l0,0
		v33.2c0,6.2,4.9,11.6,11.1,11.8c6.5,0.2,11.9-5,11.9-11.5v-33.5h9.1v33.2c0,6.2,4.9,11.6,11.1,11.8c6.5,0.2,11.9-5,11.9-11.5v-33.5
		l0,0c4.6,0,8.2-4.1,7.5-8.6l-7.5-54.2v-12l16.6,28.5c0.6,1,4.5,7.8,7.1,9.4c1.7,1,3.6,1.5,5.5,1.5c3.8,0,7.4-1.9,9.4-5.4l16.3-28
		l-0.2,96.5c0,6.4,5.2,11.5,11.5,11.5c0,0,0.1,0,0.1,0c0,0,0.1,0,0.1,0c6.4,0,11.5-5.2,11.5-11.5l-0.2-58.2c0-2.4,1.8-4.5,4.2-4.7
		c2.6-0.2,4.8,1.9,4.8,4.5v58.1c0,6.2,4.9,11.6,11.1,11.8c6.5,0.2,11.9-5,11.9-11.5v-96.5l16.3,28c2,3.5,5.7,5.4,9.4,5.4
		c1.9,0,3.8-0.5,5.5-1.5C375.5,283.1,377.2,276.4,374.2,271.2z"/>
	<path class="st0" d="M162.7,190.2l6.1-0.5c3.5-0.3,6-3.6,5.3-7.1c-1.1-5.3-1.4-12.7,3-17.2c0,0.2,0,0.4,0,0.6
		c0,13.7,11.1,24.8,24.8,24.8c13.7,0,24.8-11.1,24.8-24.8c0-0.2,0-0.4,0-0.6c4.4,4.6,4,11.9,3,17.2c-0.7,3.5,1.8,6.8,5.3,7.1
		l6.1,0.5c3.2,0.3,6.1-2.1,6.5-5.3c0.8-7.9,0.7-19.6-3.7-24.3c-6.6-6.9-14.7-7-19.9-6c-4.1-8-12.4-13.4-22-13.4s-17.9,5.4-22,13.4
		c-5.2-1-13.3-0.9-19.9,6c-4.4,4.7-4.6,16.5-3.7,24.3C156.6,188.2,159.5,190.5,162.7,190.2z"/>
</g>
</svg>
