<svg xmlns="http://www.w3.org/2000/svg" xmlns:xlink="http://www.w3.org/1999/xlink" width="585.211" height="792.031" viewBox="0 0 585.211 792.031">
  <defs>
    <clipPath id="clip-path">
      <path id="Tracciato_10619" data-name="Tracciato 10619" d="M2446.731,277.141c-3.166,132.043-72.89,94.066-136.844,94.066s-137.81,49.828-137.81-96.876c0-70.265,73.853-118.7,137.81-118.7S2448.415,206.9,2446.731,277.141Z" transform="translate(-2172.077 -155.631)" fill="none"/>
    </clipPath>
    <clipPath id="clip-path-2">
      <path id="Tracciato_10661" data-name="Tracciato 10661" d="M2273.63,158.479c-7.984-4.81-20.651-5.257-25.913-2.222-3.992,2.3-7.273,11.409-9.432,13.568,0,0,3.668,5.849,5.667,7.537,11.121,9.4,27.422,5.72,36.459.612,1.8-1.017,11.278-7.269,11.278-7.269S2278.218,161.247,2273.63,158.479Z" transform="translate(-2238.285 -154.341)" fill="none"/>
    </clipPath>
    <clipPath id="clip-path-3">
      <path id="Tracciato_10663" data-name="Tracciato 10663" d="M2221.462,156.529c8.361-4.113,21.022-3.482,26.006-.01,3.781,2.637,6.277,11.99,8.244,14.323,0,0-4.155,5.517-6.289,7.027-11.881,8.418-27.809,3.365-36.38-2.494-1.707-1.168-10.617-8.2-10.617-8.2S2216.652,158.893,2221.462,156.529Z" transform="translate(-2202.426 -153.675)" fill="none"/>
    </clipPath>
  </defs>
  <g id="Raggruppa_280" data-name="Raggruppa 280" transform="translate(-2108.942 -97.481)">
    <g id="Raggruppa_285" data-name="Raggruppa 285" transform="translate(2219.339 97.481)">
      <path id="Tracciato_10618" data-name="Tracciato 10618" d="M2469.57,205.217c4.676,27.59-7.194,48.813-7.194,69.24,0,33.274,42.811,60.417,45.822,90.415,7.553,75.269-66,120.913-175.369,120.913-133.1,0-192.395-74.154-175.651-162.76,2.8-14.845,11.431-27.886,23.435-37.054,15.231-11.633,32.875-28.68,36.442-41.908,5.963-22.1,5.264-52.215,7.643-65.018,5.821-31.3,48.782-81.565,116.456-81.565,9.744,0,19.858,1.717,28.308,5.684,9.45,4.436,17.936,9.833,27.9,15.449,9.061,5.111,30.241,13.76,37.669,20.905C2457.945,161.569,2463.867,171.56,2469.57,205.217Z" transform="translate(-2154.41 -97.481)" fill="#4b2b1b"/>
    </g>
    <g id="Raggruppa_288" data-name="Raggruppa 288" transform="translate(2262.235 238.671)">
      <g id="Raggruppa_287" data-name="Raggruppa 287">
        <g id="Raggruppa_286" data-name="Raggruppa 286" clip-path="url(#clip-path)">
          <rect id="Rettangolo_112" data-name="Rettangolo 112" width="276.336" height="265.406" transform="translate(0.001 0)" fill="#4b2b1b"/>
          <circle id="Ellisse_34" data-name="Ellisse 34" cx="125.252" cy="125.252" r="125.252" transform="translate(12.089 -13.387)" fill="#4b2b1b"/>
          <circle id="Ellisse_35" data-name="Ellisse 35" cx="120.941" cy="120.941" r="120.941" transform="translate(16.4 -9.076)" fill="#492a1a"/>
          <circle id="Ellisse_36" data-name="Ellisse 36" cx="116.63" cy="116.63" r="116.63" transform="translate(20.711 -4.765)" fill="#47291a"/>
          <circle id="Ellisse_37" data-name="Ellisse 37" cx="112.32" cy="112.32" r="112.32" transform="translate(25.021 -0.454)" fill="#462919"/>
          <circle id="Ellisse_38" data-name="Ellisse 38" cx="108.009" cy="108.009" r="108.009" transform="translate(29.332 3.857)" fill="#442819"/>
          <circle id="Ellisse_39" data-name="Ellisse 39" cx="103.698" cy="103.698" r="103.698" transform="translate(33.643 8.168)" fill="#422718"/>
          <circle id="Ellisse_40" data-name="Ellisse 40" cx="99.387" cy="99.387" r="99.387" transform="translate(37.954 12.479)" fill="#412718"/>
          <circle id="Ellisse_41" data-name="Ellisse 41" cx="95.076" cy="95.076" r="95.076" transform="translate(42.265 16.789)" fill="#402617"/>
          <circle id="Ellisse_42" data-name="Ellisse 42" cx="90.765" cy="90.765" r="90.765" transform="translate(46.576 21.1)" fill="#3e2517"/>
          <circle id="Ellisse_43" data-name="Ellisse 43" cx="86.455" cy="86.455" r="86.455" transform="translate(50.887 25.411)" fill="#3d2516"/>
          <circle id="Ellisse_44" data-name="Ellisse 44" cx="82.144" cy="82.144" r="82.144" transform="translate(55.197 29.722)" fill="#3c2416"/>
          <circle id="Ellisse_45" data-name="Ellisse 45" cx="77.833" cy="77.833" r="77.833" transform="translate(59.508 34.033)" fill="#3b2415"/>
          <circle id="Ellisse_46" data-name="Ellisse 46" cx="73.522" cy="73.522" r="73.522" transform="translate(63.819 38.344)" fill="#3a2315"/>
          <circle id="Ellisse_47" data-name="Ellisse 47" cx="69.211" cy="69.211" r="69.211" transform="translate(68.13 42.654)" fill="#392315"/>
          <circle id="Ellisse_48" data-name="Ellisse 48" cx="64.9" cy="64.9" r="64.9" transform="translate(72.441 46.965)" fill="#392315"/>
          <circle id="Ellisse_49" data-name="Ellisse 49" cx="60.589" cy="60.589" r="60.589" transform="translate(76.751 51.276)" fill="#382314"/>
          <circle id="Ellisse_50" data-name="Ellisse 50" cx="56.279" cy="56.279" r="56.279" transform="translate(81.063 55.587)" fill="#382214"/>
          <circle id="Ellisse_51" data-name="Ellisse 51" cx="51.968" cy="51.968" r="51.968" transform="translate(85.373 59.898)" fill="#372214"/>
          <circle id="Ellisse_52" data-name="Ellisse 52" cx="47.657" cy="47.657" r="47.657" transform="translate(89.684 64.209)" fill="#372214"/>
          <circle id="Ellisse_53" data-name="Ellisse 53" cx="43.346" cy="43.346" r="43.346" transform="translate(93.995 68.52)" fill="#372214"/>
        </g>
      </g>
    </g>
    <g id="Raggruppa_289" data-name="Raggruppa 289" transform="translate(2282.526 239.797)">
      <ellipse id="Ellisse_54" data-name="Ellisse 54" cx="18.389" cy="31.115" rx="18.389" ry="31.115" transform="translate(0 8.968) rotate(-14.113)" fill="#d67663"/>
    </g>
    <g id="Raggruppa_290" data-name="Raggruppa 290" transform="translate(2294.326 247.043)">
      <path id="Tracciato_10620" data-name="Tracciato 10620" d="M2205.923,188.744c-7.8-3.394-6.854-7.741-5.764-12.776.149-.682.3-1.394.441-2.134.489-2.588-.446-8.729-3.979-11.234-2.484-1.76-5.891-1.418-10.108,1.025l-1.219-2.1c6.367-3.683,10.438-2.53,12.731-.9,4.644,3.29,5.53,10.642,4.96,13.665-.143.762-.3,1.493-.454,2.195-1.074,4.953-1.612,7.439,4.357,10.04Z" transform="translate(-2185.294 -159.079)" fill="#c65d43"/>
    </g>
    <g id="Raggruppa_291" data-name="Raggruppa 291" transform="translate(2474.537 239.796)">
      <ellipse id="Ellisse_55" data-name="Ellisse 55" cx="31.115" cy="18.389" rx="31.115" ry="18.389" transform="translate(0 60.351) rotate(-75.887)" fill="#d67663"/>
    </g>
    <g id="Raggruppa_292" data-name="Raggruppa 292" transform="translate(2491.984 247.043)">
      <path id="Tracciato_10621" data-name="Tracciato 10621" d="M2267.67,188.744l-.969-2.224c5.973-2.6,5.432-5.089,4.358-10.04-.151-.7-.311-1.433-.454-2.195-.574-3.023.313-10.375,4.96-13.665,2.292-1.624,6.357-2.783,12.732.9l-1.219,2.1c-4.218-2.44-7.619-2.787-10.11-1.025-3.532,2.506-4.468,8.646-3.979,11.234.141.741.294,1.45.444,2.132C2274.524,181,2275.469,185.35,2267.67,188.744Z" transform="translate(-2266.701 -159.079)" fill="#c65d43"/>
    </g>
    <g id="Raggruppa_293" data-name="Raggruppa 293" transform="translate(2172.858 469.735)">
      <path id="Tracciato_10622" data-name="Tracciato 10622" d="M2218.326,251.3l-82.559,46.976,55.32,276.508,26.247,93.866h106.2l-12.747-239.431Z" transform="translate(-2134.552 -250.083)" fill="#2b3742"/>
      <path id="Tracciato_10623" data-name="Tracciato 10623" d="M2324.251,670.574h-106.2a1.214,1.214,0,0,1-1.168-.886l-26.249-93.867-55.342-276.6a1.214,1.214,0,0,1,.593-1.292l82.557-46.975a1.214,1.214,0,0,1,1.678.5l92.461,177.918a1.22,1.22,0,0,1,.136.5l12.747,239.43a1.212,1.212,0,0,1-1.211,1.28Zm-105.282-2.428h104L2310.3,430.255l-91.76-176.566-80.7,45.919,55.148,275.649Z" transform="translate(-2135.267 -250.797)" fill="#1e252c"/>
    </g>
    <g id="Raggruppa_294" data-name="Raggruppa 294" transform="translate(2210.988 387.676)">
      <path id="Tracciato_10624" data-name="Tracciato 10624" d="M2336.292,217.5c-77.629,0-81.587,44.739-135.9,78.551-14.4,8.964-48.92,59.71-48.92,59.71l66.186,24.462-27.543,44.265,98.247,52.989L2484.559,309S2423.823,217.5,2336.292,217.5Z" transform="translate(-2150.256 -216.286)" fill="#2b3742"/>
      <path id="Tracciato_10625" data-name="Tracciato 10625" d="M2289.078,479.4a1.228,1.228,0,0,1-.578-.143l-98.25-52.987a1.214,1.214,0,0,1-.454-1.709l26.757-43-64.787-23.948a1.208,1.208,0,0,1-.583-1.821c1.416-2.081,34.83-51.064,49.279-60.06,18.431-11.475,30.8-23.979,42.754-36.073,22.627-22.891,42.17-42.66,93.79-42.66,87.171,0,148.666,91.121,149.277,92.041a1.215,1.215,0,0,1-.221,1.593L2289.87,479.11A1.213,1.213,0,0,1,2289.078,479.4Zm-96.536-54.655,96.375,51.977L2483.653,309.5c-6.561-9.389-65.375-90.075-146.646-90.075-50.607,0-69.818,19.434-92.063,41.939-11.5,11.625-24.523,24.8-43.195,36.43-12.754,7.937-42.211,50.148-47.682,58.081L2218.79,379.8a1.214,1.214,0,0,1,.612,1.777Z" transform="translate(-2150.97 -217)" fill="#1e252c"/>
    </g>
    <g id="Raggruppa_295" data-name="Raggruppa 295" transform="translate(2310.543 387.676)">
      <path id="Tracciato_10626" data-name="Tracciato 10626" d="M2277.74,217.5c87.53,0,148.267,91.5,148.267,91.5L2195.795,506.84l-3.177,85.224c-.748,20.034,1.535,40.176,3.536,62.009l20.485,62.835H2420.2s27.391-69.784,38.182-92.8,8.634-66.185,7.193-85.61,43.166-191.96,43.166-191.96-21.481-11.662-38.9-18.434a61.872,61.872,0,0,1-14.126-7.66L2405.855,284" transform="translate(-2191.259 -216.286)" fill="#2b3742"/>
      <path id="Tracciato_10627" data-name="Tracciato 10627" d="M2420.913,718.836h-203.56A1.219,1.219,0,0,1,2216.2,718l-20.483-62.835a1.279,1.279,0,0,1-.056-.265l-.767-8.241c-1.763-18.7-3.427-36.357-2.773-53.927l3.176-85.224a1.218,1.218,0,0,1,.422-.877L2425.1,309.5c-6.563-9.389-65.377-90.075-146.648-90.075a1.214,1.214,0,1,1,0-2.428c57.287,0,103.487,39.356,128.6,66.6a1.127,1.127,0,0,1,.229.134l49.857,36.44a60.558,60.558,0,0,0,13.848,7.51c17.293,6.723,38.824,18.38,39.041,18.5a1.218,1.218,0,0,1,.6,1.372c-.447,1.724-44.537,172.56-43.129,191.564,2.955,39.9.429,69.713-7.306,86.217-10.649,22.724-37.877,92.034-38.151,92.731A1.211,1.211,0,0,1,2420.913,718.836Zm-202.679-2.428h201.851c3.03-7.7,27.837-70.614,37.908-92.1,7.559-16.127,10.009-45.523,7.083-85.008-1.4-18.873,39.079-176.374,42.962-191.428-4.123-2.2-22.7-12-37.928-17.921a63.037,63.037,0,0,1-14.4-7.813l-41.191-30.1a208.755,208.755,0,0,1,13.213,17.013,1.214,1.214,0,0,1-.221,1.593L2197.7,508.13l-3.155,84.692c-.648,17.409,1.008,34.993,2.76,53.608l.756,8.109Z" transform="translate(-2191.973 -217)" fill="#1e252c"/>
    </g>
    <g id="Raggruppa_296" data-name="Raggruppa 296" transform="translate(2249.927 517.284)">
      <path id="Tracciato_10628" data-name="Tracciato 10628" d="M2169.071,349.637l-2.063-1.28,48.52-77.977,2.063,1.28Z" transform="translate(-2167.008 -270.38)" fill="#1e252c"/>
    </g>
    <g id="Raggruppa_297" data-name="Raggruppa 297" transform="translate(2583.188 516.274)">
      <path id="Tracciato_10629" data-name="Tracciato 10629" d="M2348.383,270.644s23.019,9.226,33.091,42.32c0,0,34.534,158.271,31.655,217.264s-8.544,110.788-8.544,110.788H2310.7l-5.939-189.235Z" transform="translate(-2303.546 -268.993)" fill="#1e252c"/>
      <path id="Tracciato_10630" data-name="Tracciato 10630" d="M2406.389,643.2h-96.142l-.039-1.177-5.944-189.4.037-.16,43.946-182.5,1.3.524c.961.384,23.676,9.826,33.8,43.095.369,1.678,34.558,159.2,31.706,217.675-2.845,58.353-8.5,110.344-8.552,110.861Zm-93.792-2.428h91.614c.824-7.762,5.806-56.007,8.423-109.635,2.836-58.158-31.282-215.363-31.627-216.944-8.391-27.553-26.157-38.324-31.079-40.844L2306.7,452.877Z" transform="translate(-2304.264 -269.964)" fill="#1e252c"/>
    </g>
    <g id="Raggruppa_298" data-name="Raggruppa 298" transform="translate(2583.193 516.711)">
      <path id="Tracciato_10631" data-name="Tracciato 10631" d="M2348.383,270.644s23.019,9.226,33.091,42.32-.167,16.479-4.485,20.143c-15.326,13.009,21.6,38.1,15.846,48.17s-22.7,13.165-15.508,31.016,3.428,51.03,11.342,73.331c0,0,10.792,43.165,10.073,58.991l-8.258,96.4H2310.7l-5.939-189.235,43.617-181.138" transform="translate(-2303.551 -269.43)" fill="#2b3742"/>
      <path id="Tracciato_10632" data-name="Tracciato 10632" d="M2391.2,642.945h-79.78a1.216,1.216,0,0,1-1.214-1.178l-5.938-189.235a1.421,1.421,0,0,1,.031-.323l43.617-181.135a1.211,1.211,0,0,1,1.632-.843c.964.384,23.678,9.826,33.805,43.1,5,16.433,5.006,20.541,3.329,22.085-1.275,1.168-3.062.459-4.633-.168-1.651-.663-2.867-1.083-3.557-.5-8,6.791-.031,17.479,7.677,27.818,6.039,8.1,11.254,15.095,8.437,20.029-1.942,3.4-5.043,6.007-8.039,8.532-6.425,5.407-11.975,10.079-7.4,21.43,3.611,8.957,4.5,21.464,5.439,34.709.961,13.514,1.954,27.49,5.922,38.669.474,1.879,10.859,43.632,10.14,59.453l-8.26,96.451A1.212,1.212,0,0,1,2391.2,642.945Zm-78.6-2.428h77.49l8.163-95.29c.7-15.42-9.933-58.166-10.042-58.6-4.042-11.378-5.048-25.521-6.019-39.2-.927-13.048-1.8-25.37-5.268-33.973-5.235-12.98,1.841-18.939,8.086-24.2,2.964-2.5,5.766-4.856,7.492-7.876,2.03-3.555-3.21-10.576-8.275-17.373-7.986-10.712-17.038-22.855-7.3-31.12,1.86-1.576,4.266-.61,6.029.095a5.957,5.957,0,0,0,2.117.612c.418-.442.923-3.278-4.038-19.57-8.411-27.636-26.182-38.416-31.1-40.936L2306.7,452.62Z" transform="translate(-2304.266 -270.144)" fill="#1e252c"/>
    </g>
    <g id="Raggruppa_299" data-name="Raggruppa 299" transform="translate(2108.942 516.708)">
      <path id="Tracciato_10633" data-name="Tracciato 10633" d="M2173.358,270.644l52.455,262.192.094,108.181H2116.764s-9.986-147.743-4.478-196.607c.578-5.14,3.946-15.207,3.615-20.369-.247-3.887-3.856-11.052-4.65-14.864-5.118-24.579,1.062-77.478,13.031-99.544C2134.1,291.527,2173.358,270.644,2173.358,270.644Z" transform="translate(-2108.227 -269.427)" fill="#2b3742"/>
      <path id="Tracciato_10634" data-name="Tracciato 10634" d="M2226.623,642.947H2117.479a1.216,1.216,0,0,1-1.212-1.132c-.1-1.479-9.927-148.413-4.473-196.825a76.52,76.52,0,0,1,1.591-7.828c1.034-4.388,2.209-9.362,2.02-12.327-.131-2.066-1.406-5.429-2.527-8.394a47.656,47.656,0,0,1-2.1-6.3c-5-24.016.478-77,13.149-100.369,9.883-18.218,47.956-38.62,49.574-39.482a1.194,1.194,0,0,1,1.087-.024,1.217,1.217,0,0,1,.673.86l52.456,262.193.118,108.419a1.214,1.214,0,0,1-1.214,1.214Zm-108.008-2.428h106.793l-.094-106.967-52.108-260.337c-7.128,3.955-38.664,22.076-47.143,37.712-11.3,20.835-18.176,73.423-12.908,98.718a47.074,47.074,0,0,0,1.989,5.934c1.243,3.28,2.528,6.672,2.683,9.1.211,3.326-.954,8.265-2.08,13.038a75.335,75.335,0,0,0-1.54,7.544C2109.029,491.21,2117.707,626.686,2118.615,640.519Z" transform="translate(-2108.942 -270.143)" fill="#1e252c"/>
    </g>
    <g id="Raggruppa_300" data-name="Raggruppa 300" transform="translate(2190.918 602.121)">
      <path id="Tracciato_10635" data-name="Tracciato 10635" d="M2163.989,591.5h14.421l-.094-108.182L2142.7,305.321Z" transform="translate(-2142.705 -305.321)" fill="#1e252c"/>
    </g>
    <g id="Raggruppa_301" data-name="Raggruppa 301" transform="translate(2331.485 391.652)">
      <path id="Tracciato_10636" data-name="Tracciato 10636" d="M2225.558,226.083c-6.735,4.045-30.576,12.084-23.741,51.005s30.936,41.08,47.123,70.575a260.763,260.763,0,0,1,14.7,30.843,7.09,7.09,0,0,0,10.6,3.343c14.251-9.732,40.524-34.825,55.326-57.928,14.461-22.571,25.844-42.444,7.5-77.587C2323.47,220.289,2251.417,210.548,2225.558,226.083Z" transform="translate(-2200.598 -218.638)" fill="#fbf7eb"/>
    </g>
    <g id="Raggruppa_302" data-name="Raggruppa 302" transform="translate(2347.781 391.3)">
      <path id="Tracciato_10637" data-name="Tracciato 10637" d="M2218.785,276.447c12.453-8.707,15.075-15.959,40.99-16.46,25.475-.493,31.715,7.473,43.4,16.321,0,0,7.245-20.082,8.5-36.059.391-4.963-1.022-11.281-9.983-15.056-13.5-5.691-62-9.85-83.226-1.328-6.087,2.445-11.469,6.76-10.559,17.557C2208.657,250.275,2218.785,276.447,2218.785,276.447Z" transform="translate(-2206.598 -217.754)" fill="#fbf7eb"/>
      <path id="Tracciato_10638" data-name="Tracciato 10638" d="M2218.921,279.07l-.561-1.445c-.416-1.076-10.2-26.439-10.946-35.362-1.044-12.346,5.958-16.634,11.314-18.786,21.857-8.777,70.464-4.434,84.148,1.335,7.6,3.2,11.31,8.831,10.722,16.27-1.255,15.955-8.5,36.173-8.569,36.377l-.561,1.549-1.316-1c-1.489-1.127-2.892-2.241-4.257-3.324-9.262-7.357-16.6-13.155-38.387-12.75-20.265.391-25.876,4.9-33.639,11.137-2.031,1.634-4.132,3.321-6.684,5.1Zm35.689-58.09c-13.381,0-26.447,1.328-34.976,4.752-5.348,2.149-10.7,5.767-9.8,16.328.622,7.391,8.112,27.609,10.234,33.225,1.938-1.411,3.638-2.775,5.284-4.1,7.833-6.3,14.019-11.266,35.111-11.674,22.722-.408,30.681,5.917,39.947,13.276.937.743,1.894,1.5,2.882,2.27,1.7-5.024,6.862-21.095,7.891-34.165.5-6.388-2.608-11.045-9.248-13.842C2294.2,223.791,2274.081,220.98,2254.611,220.98Z" transform="translate(-2207.31 -218.493)" fill="#e5dfcf"/>
    </g>
    <g id="Raggruppa_303" data-name="Raggruppa 303" transform="translate(2351.499 350.537)">
      <path id="Tracciato_10639" data-name="Tracciato 10639" d="M2298.964,265.7s-20.069,12.713-40.664,12.713a69.067,69.067,0,0,1-39.3-12.543s.26-4.137-1.347-18.48c-1.685-15.01-8.814-45.683-8.814-45.683h98.92s-5.73,25.844-6.881,40.016C2299.629,257.138,2298.964,265.7,2298.964,265.7Z" transform="translate(-2208.841 -201.704)" fill="#e69f85"/>
    </g>
    <g id="Raggruppa_304" data-name="Raggruppa 304" transform="translate(2351.499 350.537)">
      <path id="Tracciato_10640" data-name="Tracciato 10640" d="M2214.2,227.375c-2.718-14.959-5.362-25.671-5.362-25.671h98.92s-5.73,25.844-6.881,40.016c-1.251,15.418-1.916,23.977-1.916,23.977a231.081,231.081,0,0,1-22.015,9.736c-11.5-6.522-22.583-13.337-30.7-20.133C2238.953,249.189,2214.2,227.375,2214.2,227.375Z" transform="translate(-2208.841 -201.704)" fill="#d67663"/>
    </g>
    <g id="Raggruppa_305" data-name="Raggruppa 305" transform="translate(2310.762 114.208)">
      <path id="Tracciato_10641" data-name="Tracciato 10641" d="M2379.829,211.924c0,59.4-56.473,182.371-93.882,182.371-45.144,0-93.884-122.972-93.884-182.371S2234.1,104.37,2285.947,104.37,2379.829,152.523,2379.829,211.924Z" transform="translate(-2192.063 -104.37)" fill="#e69f85"/>
    </g>
    <g id="Raggruppa_306" data-name="Raggruppa 306" transform="translate(2327.47 215.924)">
      <path id="Tracciato_10642" data-name="Tracciato 10642" d="M2199.148,162.412l24.873-13.594a6.483,6.483,0,0,1,3.044-.855c7.447-.2,37.567-1.282,40.871-1.685,3.878-.476-1.879,10.288-4.936,11.188-5.8,1.707-30.71-1.777-37.013-2.421a5.837,5.837,0,0,0-2.445.269l-24.142,7.767A.36.36,0,0,1,2199.148,162.412Z" transform="translate(-2198.945 -146.263)" fill="#4a2a19"/>
    </g>
    <g id="Raggruppa_307" data-name="Raggruppa 307" transform="translate(2420.218 216.907)">
      <path id="Tracciato_10643" data-name="Tracciato 10643" d="M2296.136,169.026a.227.227,0,0,0,.221-.386c-2.762-2.377-13.507-12.278-18.492-16.263a10.417,10.417,0,0,0-5.371-2.229c-8.224-.925-31.229-2.673-33.007-3.37-3.612-1.416-3.1,11.29,1.892,11.29,4.426,0,27.592,2.156,32.764,2.642a6.888,6.888,0,0,1,1.969.483C2279.7,162.664,2292.484,167.868,2296.136,169.026Z" transform="translate(-2237.144 -146.668)" fill="#4a2a19"/>
    </g>
    <g id="Raggruppa_308" data-name="Raggruppa 308" transform="translate(2408.737 229.249)">
      <path id="Tracciato_10644" data-name="Tracciato 10644" d="M2233.629,169.564a1.263,1.263,0,0,1-.408-.07,1.214,1.214,0,0,1-.736-1.551c.845-2.362,6.269-14.044,7.121-15.568a1.213,1.213,0,0,1,2.12,1.18c-.8,1.442-6.163,12.992-6.954,15.2A1.214,1.214,0,0,1,2233.629,169.564Z" transform="translate(-2232.416 -151.751)" fill="#c65d43"/>
    </g>
    <g id="Raggruppa_309" data-name="Raggruppa 309" transform="translate(2384.58 249.32)">
      <path id="Tracciato_10645" data-name="Tracciato 10645" d="M2252.074,235.519a20.036,20.036,0,0,1-6.7-1.153h0s-4.739-1.447-6.308-1.743c-2.572-.483-10.576-1.107-10.654-1.114a7.569,7.569,0,0,1-5.944-7.26c-.046-3.181,1.046-9.1,3.146-11.48a1.214,1.214,0,0,1,1.821,1.6c-1.462,1.661-2.586,6.74-2.539,9.841a5.121,5.121,0,0,0,3.9,4.907h0c.2,0,8.034.609,10.722,1.117,1.7.323,6.422,1.763,6.624,1.823a17.685,17.685,0,0,0,11.64.08l3.135-1.076a3.5,3.5,0,0,0,1.622-3.965l-18.292-65.537a1.213,1.213,0,1,1,2.335-.656l18.3,65.557a5.937,5.937,0,0,1-3.014,6.828l-3.3,1.144A19.972,19.972,0,0,1,2252.074,235.519Z" transform="translate(-2222.466 -160.017)" fill="#c65d43"/>
    </g>
    <g id="Raggruppa_310" data-name="Raggruppa 310" transform="translate(2362.514 331.202)">
      <path id="Tracciato_10646" data-name="Tracciato 10646" d="M2252.312,206.734c-14.583,0-29.568-3.746-38.477-10.829a1.215,1.215,0,0,1,1.513-1.9c14.973,11.907,47.893,13.966,65.233,4.079a1.215,1.215,0,0,1,1.2,2.11C2274.032,204.612,2263.289,206.734,2252.312,206.734Z" transform="translate(-2213.378 -193.741)" fill="#812c1c"/>
    </g>
    <g id="Raggruppa_311" data-name="Raggruppa 311" transform="translate(2395.811 350.76)">
      <path id="Tracciato_10647" data-name="Tracciato 10647" d="M2233.406,204.224h-5.1a1.214,1.214,0,1,1,0-2.428h5.1a1.214,1.214,0,1,1,0,2.428Z" transform="translate(-2227.091 -201.796)" fill="#c65d43"/>
    </g>
    <g id="Raggruppa_312" data-name="Raggruppa 312" transform="translate(2387.694 363.661)">
      <path id="Tracciato_10648" data-name="Tracciato 10648" d="M2241.939,210.935a1.205,1.205,0,0,1-.474-.1c-1.493-.636-13.269-1.549-16.394-1.255a1.262,1.262,0,0,1-1.319-1.1,1.216,1.216,0,0,1,1.1-1.318c3.047-.274,15.386.517,17.563,1.44a1.214,1.214,0,0,1-.476,2.331Z" transform="translate(-2223.748 -207.109)" fill="#c65d43"/>
    </g>
    <g id="Raggruppa_313" data-name="Raggruppa 313" transform="translate(2415.67 104.547)">
      <path id="Tracciato_10649" data-name="Tracciato 10649" d="M2291.417,134.07c20.607,24.812,40.009,48.959,31.268,56.218s-40.821-6.439-61.427-31.251-31.723-49.49-22.981-56.75S2270.811,109.258,2291.417,134.07Z" transform="translate(-2235.271 -100.391)" fill="#4b2b1b"/>
    </g>
    <g id="Raggruppa_314" data-name="Raggruppa 314" transform="translate(2293.621 103.809)">
      <path id="Tracciato_10650" data-name="Tracciato 10650" d="M2238,128.324c-31.1,24.674-60.56,48.883-51.25,60.618s52.288,4.443,83.388-20.23,50.345-52.083,41.033-63.818S2269.1,103.648,2238,128.324Z" transform="translate(-2185.004 -100.087)" fill="#4b2b1b"/>
    </g>
    <g id="Raggruppa_315" data-name="Raggruppa 315" transform="translate(2294.155 107.4)">
      <path id="Tracciato_10651" data-name="Tracciato 10651" d="M2203.62,193.539c-8.611,0-15.018-2.023-18.133-5.954a1.213,1.213,0,1,1,1.9-1.508c4.229,5.334,16.613,6.527,32.312,3.105a125.094,125.094,0,0,0,49.371-23.535c32.045-25.424,49.219-51.544,40.837-62.114a1.213,1.213,0,1,1,1.9-1.508c9.406,11.858-7.548,38.8-41.23,65.523a127.57,127.57,0,0,1-50.362,24.006A79.1,79.1,0,0,1,2203.62,193.539Z" transform="translate(-2185.224 -101.566)" fill="#372214"/>
    </g>
    <g id="Raggruppa_316" data-name="Raggruppa 316" transform="translate(2342.617 478.608)">
      <path id="Tracciato_10652" data-name="Tracciato 10652" d="M2404.048,255.185l-196.2,168.477,191.161-78.235-14.388-31.25,58.991-4.316Z" transform="translate(-2201.375 -253.403)" fill="#1e252c"/>
      <path id="Tracciato_10653" data-name="Tracciato 10653" d="M2205.183,428.671l202.883-174.22,41.619,57.51-59.418,4.349,14.189,30.807-1.175.483Zm202.46-170.658-189.5,162.736,183.048-74.917-14.593-31.691,58.569-4.286Z" transform="translate(-2205.183 -254.451)" fill="#1e252c"/>
    </g>
    <g id="Raggruppa_317" data-name="Raggruppa 317" transform="translate(2374.222 105.979)">
      <path id="Tracciato_10654" data-name="Tracciato 10654" d="M2289.656,118.1c0,9.452-17.068,0-36.8,0s-34.658,9.452-34.658,0,16-17.115,35.729-17.115S2289.656,108.644,2289.656,118.1Z" transform="translate(-2218.2 -100.981)" fill="#4b2b1b"/>
    </g>
    <g id="Raggruppa_318" data-name="Raggruppa 318" transform="translate(2495.898 196.379)">
      <path id="Tracciato_10655" data-name="Tracciato 10655" d="M2268.313,138.213" transform="translate(-2268.313 -138.213)" fill="#212326" stroke="#000" stroke-miterlimit="10" stroke-width="1"/>
    </g>
    <g id="Raggruppa_319" data-name="Raggruppa 319" transform="translate(2299.25 183.214)">
      <path id="Tracciato_10656" data-name="Tracciato 10656" d="M2187.322,187.46c2.785,6.116,14.389,13.374,13.669,41.429-.448,17.53-3,27.337-4.848,32.227a10.2,10.2,0,0,0,.84,8.816l20.833,38.457a3.994,3.994,0,0,0,7.216-.408l10.491-25.99s-15.436-27-25.538-57.959c-7.949-24.363-12.128-51.258-10.047-69.24.641-5.536,3.572-22,3.572-22" transform="translate(-2187.322 -132.791)" fill="#4b2b1b"/>
    </g>
    <g id="Raggruppa_320" data-name="Raggruppa 320" transform="translate(2298.036 196.932)">
      <path id="Tracciato_10657" data-name="Tracciato 10657" d="M2222.029,303.63a5.155,5.155,0,0,1-4.568-2.729l-20.83-38.457a11.305,11.305,0,0,1-.91-9.821c1.934-5.116,4.333-14.794,4.77-31.829.55-21.393-6.1-30.307-10.489-36.2a27.759,27.759,0,0,1-3.072-4.693,1.214,1.214,0,0,1,2.21-1.005,26.237,26.237,0,0,0,2.809,4.249c4.594,6.165,11.541,15.483,10.969,37.714-.446,17.377-2.926,27.335-4.926,32.628a9.034,9.034,0,0,0,.748,7.762l20.854,38.5a2.779,2.779,0,0,0,5.023-.282l10.273-25.448c-2.179-3.9-16.084-29.275-25.349-57.67-8.117-24.878-10.945-59.251-8.913-76.83a1.215,1.215,0,0,1,2.413.279c-2,17.326.794,51.231,8.809,75.8,9.945,30.484,25.285,57.464,25.436,57.733a1.221,1.221,0,0,1,.075,1.059l-10.494,25.992a5.161,5.161,0,0,1-4.538,3.249C2222.23,303.627,2222.13,303.63,2222.029,303.63Z" transform="translate(-2186.822 -138.44)" fill="#372214"/>
    </g>
    <g id="Raggruppa_321" data-name="Raggruppa 321" transform="translate(2460.454 187.949)">
      <path id="Tracciato_10658" data-name="Tracciato 10658" d="M2301.916,184.676c-2.785,6.116-14.388,13.374-13.669,41.429.449,17.53,3,27.337,4.849,32.227a10.205,10.205,0,0,1-.841,8.816l-20.829,38.457a4,4,0,0,1-7.219-.408l-10.491-25.99s15.435-27,25.538-57.959c7.949-24.363,11.162-68.451,9.906-86.508" transform="translate(-2253.715 -134.741)" fill="#4b2b1b"/>
    </g>
    <g id="Raggruppa_322" data-name="Raggruppa 322" transform="translate(2459.24 186.731)">
      <path id="Tracciato_10659" data-name="Tracciato 10659" d="M2268.635,309.629c-.1,0-.2,0-.3-.01a5.171,5.171,0,0,1-4.538-3.249L2253.3,280.379a1.221,1.221,0,0,1,.073-1.059c.152-.27,15.493-27.25,25.438-57.733,7.845-24.047,11.123-67.718,9.845-86.044a1.218,1.218,0,0,1,1.126-1.3,1.187,1.187,0,0,1,1.3,1.127c1.287,18.519-2.027,62.653-9.962,86.972-9.265,28.4-23.17,53.769-25.348,57.67l10.272,25.448a2.78,2.78,0,0,0,5.024.282l20.83-38.457a9.071,9.071,0,0,0,.772-7.8c-2-5.293-4.479-15.253-4.925-32.628-.573-22.229,6.374-31.547,10.968-37.712a26.334,26.334,0,0,0,2.807-4.251,1.213,1.213,0,1,1,2.209,1.005,27.472,27.472,0,0,1-3.068,4.7c-4.4,5.9-11.039,14.811-10.487,36.2.435,17.035,2.831,26.713,4.767,31.829a11.333,11.333,0,0,1-.93,9.863L2273.205,306.9A5.163,5.163,0,0,1,2268.635,309.629Z" transform="translate(-2253.215 -134.239)" fill="#372214"/>
    </g>
    <g id="Raggruppa_323" data-name="Raggruppa 323" transform="translate(2348.281 693.111)">
      <circle id="Ellisse_56" data-name="Ellisse 56" cx="11.061" cy="11.061" r="11.061" fill="#1e252c"/>
    </g>
    <g id="Raggruppa_324" data-name="Raggruppa 324" transform="translate(2338.032 757.994)">
      <circle id="Ellisse_57" data-name="Ellisse 57" cx="11.061" cy="11.061" r="11.061" fill="#1e252c"/>
    </g>
    <g id="Raggruppa_325" data-name="Raggruppa 325" transform="translate(2357.884 825.544)">
      <circle id="Ellisse_58" data-name="Ellisse 58" cx="11.061" cy="11.061" r="11.061" fill="#1e252c"/>
    </g>
    <g id="Raggruppa_326" data-name="Raggruppa 326" transform="translate(2422.989 235.537)">
      <path id="Tracciato_10660" data-name="Tracciato 10660" d="M2273.63,158.479c-7.984-4.81-20.651-5.257-25.913-2.222-3.992,2.3-7.273,11.409-9.432,13.568,0,0,3.668,5.849,5.667,7.537,11.121,9.4,27.422,5.72,36.459.612,1.8-1.017,11.278-7.269,11.278-7.269S2278.218,161.247,2273.63,158.479Z" transform="translate(-2238.285 -154.341)" fill="#fff"/>
    </g>
    <g id="Raggruppa_329" data-name="Raggruppa 329" transform="translate(2422.989 235.537)">
      <g id="Raggruppa_328" data-name="Raggruppa 328" clip-path="url(#clip-path-2)">
        <g id="Raggruppa_327" data-name="Raggruppa 327" transform="translate(6.805 -0.916)">
          <ellipse id="Ellisse_59" data-name="Ellisse 59" cx="14.126" cy="13.624" rx="14.126" ry="13.624" fill="#141414"/>
        </g>
      </g>
    </g>
    <g id="Raggruppa_330" data-name="Raggruppa 330" transform="translate(2335.923 233.92)">
      <path id="Tracciato_10662" data-name="Tracciato 10662" d="M2221.462,156.529c8.361-4.113,21.022-3.482,26.006-.01,3.781,2.637,6.277,11.99,8.244,14.323,0,0-4.155,5.517-6.289,7.027-11.881,8.418-27.809,3.365-36.38-2.494-1.707-1.168-10.617-8.2-10.617-8.2S2216.652,158.893,2221.462,156.529Z" transform="translate(-2202.426 -153.675)" fill="#fff"/>
    </g>
    <g id="Raggruppa_333" data-name="Raggruppa 333" transform="translate(2335.923 233.92)">
      <g id="Raggruppa_332" data-name="Raggruppa 332" clip-path="url(#clip-path-3)">
        <g id="Raggruppa_331" data-name="Raggruppa 331" transform="translate(16.803 -1.864)">
          <ellipse id="Ellisse_60" data-name="Ellisse 60" cx="13.624" cy="14.126" rx="13.624" ry="14.126" transform="translate(0 27.15) rotate(-85.116)" fill="#141414"/>
        </g>
      </g>
    </g>
    <g id="Raggruppa_334" data-name="Raggruppa 334" transform="translate(2384.577 459.262)">
      <path id="Tracciato_10664" data-name="Tracciato 10664" d="M2222.965,246.982a46.268,46.268,0,0,1,25.379,19.291" transform="translate(-2221.75 -245.771)" fill="#fbf7eb"/>
      <path id="Tracciato_10665" data-name="Tracciato 10665" d="M2249.06,268.2a1.21,1.21,0,0,1-1.024-.563,45.217,45.217,0,0,0-24.71-18.778,1.214,1.214,0,1,1,.707-2.324,47.692,47.692,0,0,1,26.052,19.8,1.214,1.214,0,0,1-1.025,1.865Z" transform="translate(-2222.464 -246.483)" fill="#e5dfcf"/>
    </g>
    <g id="Raggruppa_335" data-name="Raggruppa 335" transform="translate(2401.555 457.212)">
      <path id="Tracciato_10666" data-name="Tracciato 10666" d="M2229.957,296.059c5.283-8.887,8.25-18.943,12.821-28.221s11.338-18.208,21.07-21.7" transform="translate(-2228.742 -244.925)" fill="#fbf7eb"/>
      <path id="Tracciato_10667" data-name="Tracciato 10667" d="M2230.671,297.987a1.2,1.2,0,0,1-.622-.17,1.215,1.215,0,0,1-.422-1.663,122.855,122.855,0,0,0,7.69-16.469c1.578-3.86,3.207-7.852,5.086-11.667,5.757-11.691,13.075-19.2,21.748-22.309a1.215,1.215,0,0,1,.82,2.287c-8.059,2.892-14.923,9.989-20.39,21.092-1.843,3.742-3.455,7.692-5.016,11.514a124.836,124.836,0,0,1-7.85,16.792A1.21,1.21,0,0,1,2230.671,297.987Z" transform="translate(-2229.457 -245.639)" fill="#e5dfcf"/>
    </g>
    <g id="Raggruppa_336" data-name="Raggruppa 336" transform="translate(2341.509 112.995)">
      <path id="Tracciato_10668" data-name="Tracciato 10668" d="M2205.942,156.4a1.214,1.214,0,0,1-.457-2.338,142.793,142.793,0,0,0,62.463-49.68,1.213,1.213,0,1,1,1.986,1.394,145.206,145.206,0,0,1-63.539,50.534A1.2,1.2,0,0,1,2205.942,156.4Z" transform="translate(-2204.727 -103.87)" fill="#372214"/>
    </g>
    <g id="Raggruppa_337" data-name="Raggruppa 337" transform="translate(2350.424 116.6)">
      <path id="Tracciato_10669" data-name="Tracciato 10669" d="M2209.612,126.743a1.213,1.213,0,0,1-.479-2.328,101.262,101.262,0,0,0,28.825-18.737,1.215,1.215,0,1,1,1.651,1.782,103.609,103.609,0,0,1-29.517,19.184A1.158,1.158,0,0,1,2209.612,126.743Z" transform="translate(-2208.398 -105.355)" fill="#372214"/>
    </g>
    <g id="Raggruppa_338" data-name="Raggruppa 338" transform="translate(2233.836 277.014)">
      <path id="Tracciato_10670" data-name="Tracciato 10670" d="M2176.545,288.18a1.223,1.223,0,0,1-1.049-.6c-13-22.187-18.215-48.522-13.281-67.094,6.709-25.261,20.667-34.971,32.985-43.539,2.576-1.792,5.009-3.484,7.3-5.266a1.213,1.213,0,1,1,1.489,1.916c-2.344,1.823-4.8,3.533-7.406,5.344-11.975,8.328-25.546,17.768-32.023,42.167-3.628,13.653-2.392,38.931,13.031,65.243a1.213,1.213,0,0,1-1.049,1.828Z" transform="translate(-2160.381 -171.423)" fill="#372214"/>
    </g>
    <g id="Raggruppa_339" data-name="Raggruppa 339" transform="translate(2253.397 304.647)">
      <path id="Tracciato_10671" data-name="Tracciato 10671" d="M2178.912,248.98a1.216,1.216,0,0,1-1.134-.779c-.811-2.105-1.673-4.188-2.535-6.269-3.416-8.253-6.949-16.787-6.8-26.06.165-10.275,5.905-24.013,13.65-32.664a1.214,1.214,0,1,1,1.811,1.617c-7.4,8.263-12.876,21.335-13.033,31.086-.14,8.772,3.14,16.7,6.616,25.094.87,2.1,1.741,4.2,2.559,6.325a1.22,1.22,0,0,1-.7,1.571A1.264,1.264,0,0,1,2178.912,248.98Z" transform="translate(-2168.438 -182.804)" fill="#372214"/>
    </g>
    <g id="Raggruppa_340" data-name="Raggruppa 340" transform="translate(2521.351 346.388)">
      <path id="Tracciato_10672" data-name="Tracciato 10672" d="M2280.01,267.675a1.213,1.213,0,0,1-.762-2.158,70.1,70.1,0,0,0,24.98-64.126,1.213,1.213,0,1,1,2.4-.367,72.567,72.567,0,0,1-25.857,66.385A1.207,1.207,0,0,1,2280.01,267.675Z" transform="translate(-2278.796 -199.995)" fill="#372214"/>
    </g>
    <g id="Raggruppa_341" data-name="Raggruppa 341" transform="translate(2521.351 342.198)">
      <path id="Tracciato_10673" data-name="Tracciato 10673" d="M2280.01,243.614a1.214,1.214,0,0,1-1.015-1.882,64.857,64.857,0,0,0,10.072-42.112,1.216,1.216,0,0,1,2.417-.27,67.341,67.341,0,0,1-10.457,43.714A1.218,1.218,0,0,1,2280.01,243.614Z" transform="translate(-2278.796 -198.27)" fill="#372214"/>
    </g>
  </g>
</svg>
